<svg width="186" height="79" viewBox="0 0 186 79" fill="none" xmlns="http://www.w3.org/2000/svg">
<path d="M0.222137 1.32205H5.70423C7.35371 1.32205 8.56656 1.7425 9.34279 2.58341C10.1514 3.39198 10.5556 4.83123 10.5556 6.90117V11.8981C10.5556 13.4506 10.2484 14.6796 9.63387 15.5852C9.01936 16.4584 8.16228 17.0083 7.06262 17.2347V17.3317C8.29165 17.4934 9.26193 18.0109 9.97347 18.8841C10.685 19.7251 11.0408 21.0026 11.0408 22.7168V29.7028C11.0408 31.611 10.5395 33.0179 9.53684 33.9235C8.53422 34.7968 7.27285 35.2334 5.75274 35.2334H0.222137V1.32205ZM2.35676 1.61313V17.1376H5.51017C6.54514 17.1376 7.28902 16.7172 7.74182 15.8763C8.22696 15.0354 8.46953 13.8387 8.46953 12.2862V7.24077C8.46953 5.46192 8.29165 4.08735 7.93588 3.11707C7.58011 2.11444 6.72303 1.61313 5.36463 1.61313H2.35676ZM5.36463 34.9423C6.3996 34.9423 7.25668 34.538 7.93588 33.7295C8.61507 32.8886 8.95467 31.6757 8.95467 30.0909V23.0564C8.95467 21.3099 8.67976 19.9353 8.12993 18.9327C7.58011 17.93 6.70685 17.4287 5.51017 17.4287H2.35676V34.9423H5.36463ZM19.9659 1.32205C21.6153 1.32205 22.8282 1.7425 23.6044 2.58341C24.413 3.39198 24.8173 4.83123 24.8173 6.90117V12.8684C24.8173 14.4532 24.4938 15.6822 23.847 16.5555C23.2325 17.4287 22.3754 17.9786 21.2757 18.205V18.302C22.4401 18.4637 23.3133 18.9812 23.8955 19.8544C24.51 20.6953 24.8173 21.9729 24.8173 23.687V35.2334H22.6826V24.0266C22.6826 22.2801 22.4886 20.9056 22.1005 19.9029C21.7447 18.9003 20.9523 18.399 19.7233 18.399H16.5699V35.2334H14.4838V1.32205H19.9659ZM16.5699 18.1079H19.7233C20.7583 18.1079 21.5021 17.6875 21.9549 16.8466C22.4401 16.0056 22.6826 14.809 22.6826 13.2565V7.24077C22.6826 5.46192 22.5048 4.08735 22.149 3.11707C21.7932 2.11444 20.9523 1.61313 19.6263 1.61313H16.5699V18.1079ZM32.9233 35.7185C31.4032 35.7185 30.2227 35.2819 29.3818 34.4087C28.5732 33.5031 28.1689 32.08 28.1689 30.1394V6.41603C28.1689 4.31375 28.557 2.85833 29.3332 2.04976C30.1418 1.24119 31.3385 0.836905 32.9233 0.836905H33.651C35.2681 0.836905 36.481 1.25736 37.2896 2.09827C38.0981 2.90684 38.5024 4.34609 38.5024 6.41603V30.1394C38.5024 32.08 38.082 33.5031 37.241 34.4087C36.4001 35.2819 35.2196 35.7185 33.6995 35.7185H32.9233ZM33.3114 35.4275C34.314 35.4275 35.0741 35.007 35.5916 34.1661C36.1414 33.3252 36.4163 32.0962 36.4163 30.479V6.75563C36.4163 4.97678 36.2222 3.60221 35.8341 2.63193C35.4784 1.6293 34.6375 1.12799 33.3114 1.12799C32.6322 1.12799 32.0985 1.25736 31.7104 1.5161C31.3223 1.77484 31.0151 2.14679 30.7887 2.63193C30.5946 3.11707 30.4652 3.71541 30.4006 4.42695C30.3359 5.10615 30.3035 5.88237 30.3035 6.75563V30.479C30.3035 32.0962 30.5461 33.3252 31.0312 34.1661C31.5164 35.007 32.2764 35.4275 33.3114 35.4275ZM44.0959 35.2334H41.9613V1.32205H44.0959V35.2334ZM50.1117 1.32205H50.4028L45.5999 15.4396L53.0225 35.2334H50.7909L44.387 18.6416V18.1564L50.1117 1.32205ZM57.1246 1.61313V18.1564H61.3453V18.4475H57.1246V34.9423H62.5582V35.2334H54.99V1.32205H62.5582V1.61313H57.1246ZM65.7063 2.68044H65.6093V35.2334H65.3182V1.32205H67.5498L74.5844 31.4978H74.6814V1.32205H74.9725V35.2334H73.2745L65.7063 2.68044ZM84.5059 1.32205H89.988C91.6375 1.32205 92.8503 1.7425 93.6265 2.58341C94.4351 3.39198 94.8394 4.83123 94.8394 6.90117V29.7028C94.8394 31.6434 94.4189 33.0503 93.578 33.9235C92.7371 34.7968 91.5566 35.2334 90.0365 35.2334H84.5059V1.32205ZM86.6405 1.61313V34.9423H89.6484C91.7183 34.9423 92.7533 33.309 92.7533 30.0424V7.24077C92.7533 5.46192 92.5754 4.08735 92.2196 3.11707C91.8639 2.11444 91.0068 1.61313 89.6484 1.61313H86.6405ZM103.823 1.32205C105.473 1.32205 106.686 1.7425 107.462 2.58341C108.27 3.39198 108.675 4.83123 108.675 6.90117V12.8684C108.675 14.4532 108.351 15.6822 107.704 16.5555C107.09 17.4287 106.233 17.9786 105.133 18.205V18.302C106.297 18.4637 107.171 18.9812 107.753 19.8544C108.367 20.6953 108.675 21.9729 108.675 23.687V35.2334H106.54V24.0266C106.54 22.2801 106.346 20.9056 105.958 19.9029C105.602 18.9003 104.81 18.399 103.581 18.399H100.427V35.2334H98.3411V1.32205H103.823ZM100.427 18.1079H103.581C104.616 18.1079 105.36 17.6875 105.812 16.8466C106.297 16.0056 106.54 14.809 106.54 13.2565V7.24077C106.54 5.46192 106.362 4.08735 106.006 3.11707C105.651 2.11444 104.81 1.61313 103.484 1.61313H100.427V18.1079ZM114.403 1.61313V18.1564H118.624V18.4475H114.403V34.9423H119.837V35.2334H112.269V1.32205H119.837V1.61313H114.403ZM125.55 1.32205H127.83L131.905 35.2334H129.722L128.315 23.687H123.172L121.814 35.2334H121.474L125.55 1.32205ZM128.315 23.396L125.841 2.43787H125.744L123.221 23.396H128.315ZM146.674 1.32205V35.2334H144.588V3.2141H144.491L140.415 35.2334H138.669L134.545 3.2141H134.448V35.2334H134.157V1.32205H136.437L140.464 32.177L144.442 1.32205H146.674ZM155.454 1.12799C154.742 1.12799 154.176 1.25736 153.756 1.5161C153.336 1.77484 153.012 2.14679 152.786 2.63193C152.559 3.11707 152.414 3.71541 152.349 4.42695C152.284 5.10615 152.252 5.88237 152.252 6.75563V13.1595C152.252 14.7766 152.495 16.0056 152.98 16.8466C153.465 17.6875 154.29 18.1079 155.454 18.1079H155.891C157.346 18.1079 158.478 18.5607 159.287 19.4663C160.095 20.3396 160.499 21.7465 160.499 23.687V30.1394C160.499 32.2094 160.095 33.6648 159.287 34.5057C158.51 35.3143 157.33 35.7185 155.745 35.7185H155.017C153.368 35.7185 152.139 35.3789 151.33 34.6997C150.554 33.9882 150.166 32.743 150.166 30.9642V22.6682H152.252V30.6731C152.252 31.417 152.284 32.08 152.349 32.6622C152.414 33.2443 152.543 33.7456 152.737 34.1661C152.964 34.5865 153.271 34.91 153.659 35.1364C154.047 35.3304 154.565 35.4275 155.211 35.4275C155.923 35.4275 156.489 35.2981 156.909 35.0393C157.33 34.7806 157.637 34.4087 157.831 33.9235C158.058 33.4384 158.203 32.8562 158.268 32.177C158.332 31.4655 158.365 30.6731 158.365 29.7998V23.3474C158.365 21.698 158.122 20.4689 157.637 19.6604C157.184 18.8195 156.392 18.399 155.26 18.399H154.823C153.368 18.399 152.22 17.9624 151.379 17.0891C150.57 16.1835 150.166 14.7605 150.166 12.8199V6.41603C150.166 4.31375 150.554 2.85833 151.33 2.04976C152.139 1.24119 153.319 0.836905 154.872 0.836905H155.648C157.297 0.836905 158.51 1.19268 159.287 1.90422C160.095 2.58341 160.499 3.81244 160.499 5.59129V13.8872H158.365V5.88237C158.365 4.39461 158.187 3.23027 157.831 2.38936C157.508 1.54845 156.715 1.12799 155.454 1.12799ZM169.786 1.32205H171.872V35.2334H169.786V1.32205ZM175.953 2.68044H175.856V35.2334H175.565V1.32205H177.796L184.831 31.4978H184.928V1.32205H185.219V35.2334H183.521L175.953 2.68044ZM12.7706 44.6131H9.22908V78.2334H7.14297V44.6131H3.55293V44.322H12.7706V44.6131ZM25.0451 44.322V78.2334H22.9589V61.4475H17.1858V78.2334H15.0511V44.322H17.1858V61.1564H22.9589V44.322H25.0451ZM30.9251 44.6131V61.1564H35.1458V61.4475H30.9251V77.9423H36.3587V78.2334H28.7905V44.322H36.3587V44.6131H30.9251ZM50.2758 44.128C49.5642 44.128 48.9983 44.2574 48.5778 44.5161C48.1897 44.7748 47.8824 45.1468 47.656 45.6319C47.4296 46.1171 47.2841 46.7154 47.2194 47.4269C47.1547 48.1061 47.1224 48.8824 47.1224 49.7556V73.479C47.1224 75.0962 47.3649 76.3252 47.8501 77.1661C48.3676 78.007 49.16 78.4275 50.2273 78.4275C51.1652 78.4275 51.8929 78.104 52.4104 77.4572C52.9602 76.778 53.2351 75.7915 53.2351 74.4978V65.6682H55.3213V74.1097C55.3213 75.7268 54.9008 76.9073 54.0599 77.6512C53.219 78.3628 52.0385 78.7185 50.5184 78.7185H49.7421C48.222 78.7185 47.0415 78.2819 46.2006 77.4087C45.392 76.5031 44.9878 75.08 44.9878 73.1394V49.416C44.9878 47.3137 45.3759 45.8583 46.1521 45.0498C46.9607 44.2412 48.1573 43.8369 49.7421 43.8369H50.4698C52.087 43.8369 53.316 44.1927 54.1569 44.9042C54.9978 45.5834 55.4183 46.8124 55.4183 48.5913V56.8872H53.2837V48.8824C53.2837 47.3946 53.0896 46.2303 52.7015 45.3894C52.3457 44.5484 51.5372 44.128 50.2758 44.128ZM58.9234 44.322H61.0095V78.2334H58.9234V44.322ZM72.5131 44.6131H68.9715V78.2334H66.8854V44.6131H63.2954V44.322H72.5131V44.6131ZM79.3539 64.3584V78.2334H77.2193V64.3584L73.3867 44.322H75.5213L79.1599 63.194H79.2569L82.8955 44.322H83.1865L79.3539 64.3584ZM95.7926 78.7185C94.2725 78.7185 93.092 78.2819 92.2511 77.4087C91.4425 76.5031 91.0382 75.08 91.0382 73.1394V49.416C91.0382 47.3137 91.4264 45.8583 92.2026 45.0498C93.0112 44.2412 94.2078 43.8369 95.7926 43.8369H96.5203C98.1375 43.8369 99.3503 44.2574 100.159 45.0983C100.967 45.9068 101.372 47.3461 101.372 49.416V73.1394C101.372 75.08 100.951 76.5031 100.11 77.4087C99.2695 78.2819 98.089 78.7185 96.5689 78.7185H95.7926ZM96.1807 78.4275C97.1834 78.4275 97.9434 78.007 98.4609 77.1661C99.0107 76.3252 99.2856 75.0962 99.2856 73.479V49.7556C99.2856 47.9768 99.0916 46.6022 98.7035 45.6319C98.3477 44.6293 97.5068 44.128 96.1807 44.128C95.5015 44.128 94.9679 44.2574 94.5798 44.5161C94.1917 44.7748 93.8844 45.1468 93.658 45.6319C93.4639 46.1171 93.3346 46.7154 93.2699 47.4269C93.2052 48.1061 93.1729 48.8824 93.1729 49.7556V73.479C93.1729 75.0962 93.4154 76.3252 93.9006 77.1661C94.3857 78.007 95.1458 78.4275 96.1807 78.4275ZM106.965 44.6131V61.1564H111.332V61.4475H106.965V78.2334H104.831V44.322H112.544V44.6131H106.965ZM126.838 44.128C126.127 44.128 125.561 44.2574 125.14 44.5161C124.72 44.7748 124.396 45.1468 124.17 45.6319C123.944 46.1171 123.798 46.7154 123.733 47.4269C123.669 48.1061 123.636 48.8824 123.636 49.7556V56.1595C123.636 57.7766 123.879 59.0056 124.364 59.8466C124.849 60.6875 125.674 61.1079 126.838 61.1079H127.275C128.73 61.1079 129.862 61.5607 130.671 62.4663C131.479 63.3396 131.884 64.7465 131.884 66.687V73.1394C131.884 75.2094 131.479 76.6648 130.671 77.5057C129.895 78.3143 128.714 78.7185 127.129 78.7185H126.402C124.752 78.7185 123.523 78.3789 122.715 77.6997C121.938 76.9882 121.55 75.743 121.55 73.9642V65.6682H123.636V73.6731C123.636 74.417 123.669 75.08 123.733 75.6622C123.798 76.2443 123.927 76.7456 124.121 77.1661C124.348 77.5865 124.655 77.91 125.043 78.1364C125.431 78.3304 125.949 78.4275 126.596 78.4275C127.307 78.4275 127.873 78.2981 128.294 78.0393C128.714 77.7806 129.021 77.4087 129.215 76.9235C129.442 76.4384 129.587 75.8562 129.652 75.177C129.717 74.4655 129.749 73.6731 129.749 72.7998V66.3474C129.749 64.698 129.507 63.4689 129.021 62.6604C128.569 61.8195 127.776 61.399 126.644 61.399H126.208C124.752 61.399 123.604 60.9624 122.763 60.0891C121.954 59.1835 121.55 57.7605 121.55 55.8199V49.416C121.55 47.3137 121.938 45.8583 122.715 45.0498C123.523 44.2412 124.704 43.8369 126.256 43.8369H127.032C128.682 43.8369 129.895 44.1927 130.671 44.9042C131.479 45.5834 131.884 46.8124 131.884 48.5913V56.8872H129.749V48.8824C129.749 47.3946 129.571 46.2303 129.215 45.3894C128.892 44.5484 128.1 44.128 126.838 44.128ZM143.105 44.6131H139.563V78.2334H137.477V44.6131H133.887V44.322H143.105V44.6131ZM148.054 44.322H150.334L154.409 78.2334H152.226L150.819 66.687H145.676L144.318 78.2334H143.978L148.054 44.322ZM150.819 66.396L148.345 45.4379H148.248L145.725 66.396H150.819ZM162.192 44.322C163.841 44.322 165.054 44.7425 165.83 45.5834C166.639 46.392 167.043 47.8312 167.043 49.9012V55.8684C167.043 57.4532 166.72 58.6822 166.073 59.5555C165.458 60.4287 164.601 60.9786 163.502 61.205V61.302C164.666 61.4637 165.539 61.9812 166.121 62.8544C166.736 63.6953 167.043 64.9729 167.043 66.687V78.2334H164.909V67.0266C164.909 65.2801 164.714 63.9056 164.326 62.9029C163.971 61.9003 163.178 61.399 161.949 61.399H158.796V78.2334H156.71V44.322H162.192ZM158.796 61.1079H161.949C162.984 61.1079 163.728 60.6875 164.181 59.8466C164.666 59.0056 164.909 57.809 164.909 56.2565V50.2408C164.909 48.4619 164.731 47.0873 164.375 46.1171C164.019 45.1144 163.178 44.6131 161.852 44.6131H158.796V61.1079ZM175.731 44.128C175.02 44.128 174.454 44.2574 174.033 44.5161C173.613 44.7748 173.289 45.1468 173.063 45.6319C172.837 46.1171 172.691 46.7154 172.626 47.4269C172.562 48.1061 172.529 48.8824 172.529 49.7556V56.1595C172.529 57.7766 172.772 59.0056 173.257 59.8466C173.742 60.6875 174.567 61.1079 175.731 61.1079H176.168C177.623 61.1079 178.755 61.5607 179.564 62.4663C180.373 63.3396 180.777 64.7465 180.777 66.687V73.1394C180.777 75.2094 180.373 76.6648 179.564 77.5057C178.788 78.3143 177.607 78.7185 176.022 78.7185H175.295C173.645 78.7185 172.416 78.3789 171.608 77.6997C170.831 76.9882 170.443 75.743 170.443 73.9642V65.6682H172.529V73.6731C172.529 74.417 172.562 75.08 172.626 75.6622C172.691 76.2443 172.82 76.7456 173.015 77.1661C173.241 77.5865 173.548 77.91 173.936 78.1364C174.324 78.3304 174.842 78.4275 175.489 78.4275C176.2 78.4275 176.766 78.2981 177.187 78.0393C177.607 77.7806 177.914 77.4087 178.109 76.9235C178.335 76.4384 178.48 75.8562 178.545 75.177C178.61 74.4655 178.642 73.6731 178.642 72.7998V66.3474C178.642 64.698 178.4 63.4689 177.914 62.6604C177.462 61.8195 176.669 61.399 175.537 61.399H175.101C173.645 61.399 172.497 60.9624 171.656 60.0891C170.848 59.1835 170.443 57.7605 170.443 55.8199V49.416C170.443 47.3137 170.831 45.8583 171.608 45.0498C172.416 44.2412 173.597 43.8369 175.149 43.8369H175.925C177.575 43.8369 178.788 44.1927 179.564 44.9042C180.373 45.5834 180.777 46.8124 180.777 48.5913V56.8872H178.642V48.8824C178.642 47.3946 178.464 46.2303 178.109 45.3894C177.785 44.5484 176.993 44.128 175.731 44.128Z" fill="white"/>
</svg>
