<svg width="1253" height="702" viewBox="0 0 1253 702" fill="none" xmlns="http://www.w3.org/2000/svg">
<path d="M351.37 354.386C350.604 354.861 347.089 355.922 340.824 357.568C334.617 359.135 325.84 361.96 314.493 366.045C303.135 370.061 291.447 375.078 279.43 381.097C264.945 388.357 251.993 396.845 240.574 406.559C229.235 416.33 219.87 426.8 212.478 437.969C208.713 443.775 206.19 447.273 204.908 448.464C203.705 449.712 202.308 449.973 200.716 449.248C199.658 448.787 199.034 448.186 198.844 447.444C198.722 446.692 198.859 445.37 199.255 443.48C200.85 436.41 204.392 422.073 209.883 400.467C221.776 352.474 229.622 319.392 233.422 301.221C237.29 283.038 240.713 262.54 243.69 239.726C246.125 220.933 247.116 211.222 246.663 210.593C246.471 210.273 245.96 211.023 245.131 212.843C245.074 212.922 245.017 213.002 244.959 213.081C243.855 215.367 242.419 216.477 240.653 216.412C238.955 216.336 237.913 215.1 237.525 212.705C237.381 211.815 237.766 209.857 238.68 206.829C239.652 203.723 240.881 200.469 242.367 197.068C245.918 188.207 248.295 180.764 249.496 174.741C250.906 168.263 252.534 164.874 254.382 164.575C256.229 164.276 257.584 164.619 258.445 165.603C259.647 166.953 258.637 181.969 255.416 210.651C252.251 239.253 248.838 263.928 245.174 284.676C242.272 301.017 238.167 319.905 232.859 341.34C220.183 393.603 213.884 419.974 213.961 420.453C213.983 420.59 214.452 420.233 215.368 419.383C216.284 418.532 217.555 417.273 219.181 415.605C220.886 413.995 222.604 412.242 224.334 410.347C232.693 401.69 245.393 392.295 262.432 382.163C279.54 372.02 293.665 364.922 304.807 360.871C310.641 358.733 316.941 356.66 323.709 354.651C330.465 352.574 336.297 350.857 341.204 349.501C346.179 348.134 348.798 347.394 349.06 347.281C350.716 346.662 352.003 346.805 352.922 347.709C353.83 348.545 354.115 349.658 353.778 351.047C353.51 352.425 352.707 353.538 351.37 354.386ZM365.44 303.337C366.402 304.937 366.045 306.856 364.371 309.093C362.765 311.319 358.052 316.261 350.233 323.917C341.394 332.651 334.495 338.403 329.536 341.172C324.577 343.942 319.69 344.768 314.874 343.652C310.503 342.674 307.716 339.122 306.513 332.997C305.3 326.803 305.932 319.432 308.411 310.885C309.986 305.433 311.722 300.974 313.618 297.506C315.572 293.96 318.137 291.367 321.313 289.73C324.626 288.07 327.531 288.231 330.029 290.215C332.585 292.118 333.804 294.66 333.686 297.839C333.602 301.223 331.925 305.392 328.654 310.346C325.372 315.231 322.293 317.907 319.419 318.372C317.161 318.738 315.751 319.352 315.188 320.216C314.615 321.011 314.257 323.14 314.116 326.604C314.021 329.92 314.824 332.494 316.525 334.325C317.841 335.517 318.955 336.109 319.867 336.102C320.768 336.026 322.589 335.345 325.33 334.058C329.053 332.332 335.867 326.489 345.771 316.528C349.573 312.683 352.572 309.739 354.77 307.698C356.956 305.588 358.816 304.058 360.347 303.108C361.868 302.089 362.958 301.667 363.618 301.841C364.267 301.947 364.875 302.445 365.44 303.337ZM320.158 302.768C318.271 306.725 317.845 308.866 318.881 309.19C319.598 309.284 320.685 308.406 322.141 306.555C324.342 303.67 325.327 301.51 325.094 300.073C324.795 298.225 324.08 297.709 322.947 298.524C321.999 299.169 321.069 300.584 320.158 302.768ZM436.202 225.729C449.395 221.767 462.475 219.93 475.443 220.218C485.517 220.413 491.197 221.881 492.483 224.622C492.822 225.41 492.721 226.304 492.18 227.305C491.468 228.544 490.599 229.246 489.572 229.412C488.603 229.499 486.348 229.232 482.806 228.612C478.285 228.009 470.527 228.458 459.534 229.957C448.529 231.387 438.999 233.246 430.942 235.534L420.483 238.596L419.1 245.667C416.518 259.217 413.343 281.677 409.573 313.046C405.803 344.415 403.419 368.291 402.42 384.675C401.11 406.516 401.413 425.954 403.329 442.99C405.323 460.083 408.591 471.808 413.132 478.165C415.487 481.436 416.667 483.738 416.672 485.071C416.757 486.462 415.636 487.346 413.31 487.722C411.394 488.033 408.81 485.958 405.56 481.498C402.538 477.142 399.893 469.916 397.626 459.819C395.428 449.711 394.082 439.009 393.587 427.713C393.137 416.69 393.529 400.896 394.764 380.331C396.079 359.823 397.779 340.833 399.866 323.36C402.233 304.578 403.531 293.729 403.761 290.812C403.809 290.243 403.546 290.566 402.97 291.783C401.418 294.773 399.131 300.165 396.108 307.957C390.906 321.37 386.902 330.902 384.095 336.553C381.277 342.135 378.443 346.105 375.595 348.463C372.7 350.968 370.3 352.41 368.395 352.789C366.479 353.099 364.208 352.518 361.582 351.047C359.956 350.117 358.793 349.006 358.093 347.715C357.45 346.344 356.902 344.045 356.45 340.818C355.329 331.73 356.904 311.741 361.172 280.854C363.066 268.258 363.734 261.759 363.178 261.358C362.701 261.013 357.966 263.219 348.975 267.976C337.722 273.941 331.092 277.016 329.085 277.2C327.683 277.217 326.855 276.438 326.6 274.864C326.279 272.879 328.01 270.562 331.795 267.913C335.637 265.184 342.738 261.331 353.098 256.353L366.393 249.987L369.282 235.299C371.03 227.01 373.837 216.373 377.704 203.387C381.639 190.391 384.567 182.016 386.487 178.264C388.327 174.877 390.683 172.95 393.557 172.485C395.542 172.164 396.818 172.238 397.386 172.708C398.022 173.167 398.528 174.559 398.905 176.886C399.492 180.513 399.276 186.552 398.257 195.004C397.295 203.376 395.808 211.763 393.798 220.164C391.448 230.376 390.242 236.154 390.179 237.499C390.125 239.333 390.822 240.168 392.27 240.004C392.886 239.904 395.688 238.994 400.676 237.274C406.646 235.113 410.403 233.592 411.946 232.71C413.477 231.76 414.138 230.635 413.927 229.335C413.783 228.445 415.32 219.067 418.537 201.201C421.811 183.255 424.228 170.855 425.787 164.002C428.068 153.801 430.614 146.541 433.427 142.224C436.296 137.827 439.322 136.564 442.504 138.437C444.278 139.414 445.369 141.168 445.779 143.7C446.433 147.737 445.584 155.073 443.233 165.707C440.939 176.261 437.584 188.075 433.17 201.149C426.942 219.503 423.908 228.737 424.067 228.852C424.716 228.957 428.761 227.916 436.202 225.729ZM434.35 164.195C433.59 166.004 433.293 167.421 433.459 168.448C433.592 169.269 433.928 169.179 434.469 168.179C434.641 167.94 434.773 167.673 434.865 167.377C435.672 165.421 436.009 164.032 435.876 163.211C435.766 162.526 435.447 162.508 434.919 163.155C434.747 163.394 434.558 163.74 434.35 164.195ZM378.984 229.515C376.763 239.214 375.736 244.366 375.904 244.971C376.096 245.291 376.569 245.39 377.321 245.268C377.732 245.202 378.242 244.663 378.85 243.651C379.448 242.572 379.984 241.326 380.458 239.915C381.96 235.318 384.017 226.769 386.628 214.267C389.228 201.697 390.289 195.24 389.812 194.896C389.505 194.735 389.058 195.229 388.472 196.377C387.954 197.514 387.313 199.198 386.551 201.428C385.788 203.659 384.979 206.248 384.122 209.195C383.322 212.064 382.475 215.291 381.581 218.876C380.676 222.394 379.81 225.94 378.984 229.515ZM405.829 254.136C407.942 248.106 408.767 244.742 408.303 244.045C407.974 243.747 407.365 243.67 406.475 243.814C404.217 244.179 400.387 245.467 394.986 247.675C389.643 249.804 386.553 251.323 385.717 252.231C384.618 253.251 382.351 254.215 378.917 255.122C378.175 255.313 377.605 255.475 377.205 255.61C376.874 255.734 376.474 255.869 376.006 256.015C375.539 256.161 375.195 256.427 374.977 256.814C374.748 257.132 374.484 257.455 374.186 257.784C373.877 258.045 373.647 258.574 373.495 259.371C373.332 260.1 373.129 260.8 372.887 261.471C372.702 262.063 372.475 263.047 372.207 264.425C371.995 265.723 371.773 266.953 371.54 268.115C371.375 269.265 371.111 270.888 370.748 272.983C370.759 273.051 370.736 273.125 370.679 273.205C370.679 273.205 370.684 273.239 370.695 273.308C368.806 285.06 367.195 298.102 365.864 312.433C364.532 326.763 364.11 335.434 364.598 338.445C364.941 340.567 365.522 341.983 366.339 342.693C367.213 343.324 368.251 343.226 369.451 342.4C370.72 341.562 372.152 339.996 373.747 337.701C376.57 333.452 379.267 328.205 381.838 321.96C384.476 315.704 388.182 305.624 392.953 291.72C394.813 286.292 397.297 279.078 400.404 270.078C403.501 261.009 405.309 255.695 405.829 254.136ZM493.552 282.595C494.513 284.195 494.157 286.114 492.482 288.351C490.877 290.578 486.164 295.519 478.344 303.176C469.506 311.91 462.607 317.662 457.648 320.431C452.689 323.2 447.802 324.026 442.986 322.91C438.614 321.932 435.827 318.381 434.625 312.255C433.411 306.061 434.044 298.691 436.522 290.143C438.098 284.691 439.833 280.232 441.73 276.765C443.684 273.218 446.249 270.626 449.425 268.988C452.737 267.328 455.643 267.49 458.141 269.473C460.696 271.377 461.915 273.918 461.798 277.097C461.714 280.482 460.036 284.651 456.765 289.605C453.483 294.49 450.405 297.165 447.531 297.631C445.273 297.996 443.862 298.611 443.3 299.474C442.726 300.269 442.369 302.399 442.227 305.863C442.132 309.179 442.935 311.752 444.636 313.584C445.953 314.775 447.067 315.367 447.979 315.36C448.879 315.285 450.7 314.603 453.441 313.317C457.165 311.591 463.978 305.747 473.883 295.787C477.684 291.941 480.684 288.998 482.882 286.956C485.068 284.847 486.927 283.317 488.459 282.367C489.979 281.348 491.07 280.926 491.73 281.1C492.379 281.205 492.986 281.704 493.552 282.595ZM448.27 282.026C446.383 285.984 445.957 288.124 446.992 288.448C447.71 288.543 448.797 287.664 450.253 285.813C452.454 282.929 453.439 280.768 453.206 279.331C452.907 277.483 452.191 276.967 451.059 277.783C450.11 278.428 449.18 279.842 448.27 282.026ZM538.008 274.134C541.295 273.18 543.302 272.785 544.031 272.948C544.749 273.043 545.24 273.911 545.506 275.553C545.872 277.812 544.643 279.766 541.821 281.417C538.987 282.999 535.228 283.854 530.543 283.98C526.976 284.066 523.731 283.327 520.809 281.764C517.877 280.132 514.772 277.439 511.496 273.686C510.374 272.393 509.521 271.899 508.938 272.204C508.345 272.441 507.01 273.956 504.934 276.75C503.719 278.351 502.12 281.489 500.138 286.164C498.214 290.759 496.459 295.538 494.875 300.499C491.067 312.984 487.892 319.397 485.349 319.738C484.448 319.814 483.614 319.212 482.844 317.932C482.122 316.504 482.272 308.755 483.294 294.685C484.498 280.866 484.508 272.472 483.326 269.504C482.379 267.129 482.463 265.044 483.577 263.248C484.748 261.373 486.381 260.617 488.477 260.98C490.139 261.273 491.425 264.225 492.333 269.836L493.679 278.151L499.648 270.127C503.398 265.095 506.556 262.477 509.121 262.273C511.675 262 514.64 264.048 518.016 268.417C520.928 272.089 523.784 274.33 526.584 275.141C529.452 275.94 533.26 275.605 538.008 274.134ZM600.521 264.645C606.469 264.946 605.081 269.384 596.357 277.96C589.808 284.357 584.005 291.02 578.947 297.948C573.957 304.866 571.628 309.351 571.961 311.404C572.515 314.825 571.149 320.489 567.865 328.394C564.58 336.3 560.465 343.848 555.52 351.039C551.309 357.128 548.264 361.097 546.387 362.946C544.589 364.853 542.629 365.977 540.508 366.321C537.154 366.864 534.69 366.174 533.115 364.252C530.952 361.302 531.403 356.278 534.467 349.181C537.532 342.083 543.59 332.008 552.643 318.956C557.484 311.992 560.314 307.566 561.132 305.678C562.007 303.711 561.896 301.938 560.798 300.36C560.141 299.343 558.688 298.173 556.438 296.852C554.176 295.463 551.743 294.312 549.137 293.4C538.659 289.408 532.393 285.401 530.337 281.38C528.553 277.736 529.157 271.704 532.148 263.285C535.127 254.797 538.878 248.466 543.399 244.293C545.001 242.91 546.275 242.107 547.222 241.884C548.158 241.592 549.331 241.682 550.742 242.156C553.257 242.943 554.498 244.533 554.464 246.926C554.488 249.24 553.189 254.014 550.568 261.251C548.362 267.577 546.577 271.517 545.214 273.073C543.84 274.559 542.113 274.523 540.035 272.963C539.558 272.619 539.171 272.401 538.875 272.308C538.579 272.215 538.38 272.283 538.276 272.51C538.172 272.738 538.125 273.097 538.134 273.587C538.132 274.008 538.198 274.63 538.331 275.451C538.708 277.778 539.929 279.687 541.997 281.178C544.053 282.6 547.562 284.104 552.523 285.688C557.269 287.237 561.23 289.37 564.409 292.086L569.313 296.348L586.295 276.323C589.422 273.078 592.38 270.317 595.172 268.039C597.963 265.761 599.746 264.63 600.521 264.645ZM547.322 349.206C550.501 344.548 553.591 339.343 556.592 333.59C559.582 327.769 560.989 324.311 560.811 323.216C560.645 322.19 558.72 324.397 555.037 329.839C554.704 330.385 554.336 330.936 553.935 331.492C547.53 341.378 543.38 348.931 541.487 354.154C540.817 356.088 540.865 356.818 541.631 356.343C542.58 355.697 544.477 353.319 547.322 349.206ZM868.73 77.3305C864.179 75.6796 860.536 74.865 857.8 74.8865C855.133 74.8969 848.776 75.7506 838.727 77.4477C830.653 78.755 823.791 80.182 818.142 81.7285C812.551 83.1955 805.788 85.4491 797.853 88.4894C796.198 89.1086 793.915 89.9698 791.003 91.0732C779.279 95.4293 772.185 98.8951 769.723 101.471C767.261 104.046 764.357 111.048 761.01 122.474C760.131 125.285 759.471 127.499 759.03 129.115C750.233 158.489 735.837 200.567 715.844 255.349C711.48 267.432 708.617 276.639 707.254 282.969C705.724 290.871 702.612 302.014 697.919 316.397C693.225 330.781 689.885 339.433 687.9 342.352C686.202 344.875 684.279 346.661 682.131 347.711C679.984 348.76 678.234 348.798 676.883 347.823C675.054 346.504 675.258 341.906 677.494 334.03C679.73 326.154 684.855 312.052 692.87 291.723C697.425 280.382 700.516 269.98 702.144 260.517C703.772 251.053 704.298 240.856 703.722 229.924C703.057 218.444 700.938 208.394 697.366 199.773C693.85 191.072 688.323 182.522 680.783 174.122C674.876 167.564 668.655 163.41 662.122 161.659C655.646 159.828 646.881 159.913 635.829 161.913C627.319 163.571 622.497 163.72 621.364 162.358C619.992 160.825 620.039 159.378 621.504 158.017C623.026 156.577 625.967 155.223 630.327 153.955C635.611 152.327 646.535 147.363 663.098 139.064C680.964 130.132 701.266 120.63 724.003 110.558C740.837 103.058 750.699 98.4763 753.59 96.8144C758.161 94.2486 761.108 91.4188 762.433 88.3251C763.205 86.585 764.136 82.3611 765.227 75.6536C765.298 75.2208 765.368 74.7881 765.439 74.3553C765.92 71.2577 766.443 69.0663 767.008 67.781C767.64 66.4848 768.453 65.8617 769.444 65.9119C771.415 65.9438 772.684 67.494 773.251 70.5623C773.818 73.6306 773.539 77.3276 772.414 81.6531C771.44 85.1815 771.066 87.2084 771.291 87.7337C771.742 88.7842 774.16 88.5333 778.543 86.9809C780.415 86.397 785.547 84.4777 793.938 81.223C805.126 77.024 817.229 73.4845 830.246 70.6045C843.252 67.6562 852.74 66.401 858.709 66.8389C865.454 67.2919 871.474 69.1262 876.77 72.3419C880.964 74.823 882.464 76.9326 881.271 78.6708C880.984 79.0683 880.584 79.4141 880.07 79.708C878.916 80.3864 875.135 79.5939 868.73 77.3305ZM729.575 191.819C737.302 169.712 743.844 150.043 749.201 132.813C754.626 115.572 756.991 106.762 756.298 106.383C755.037 105.534 738.371 112.551 706.3 127.434C674.287 142.238 658.385 150.29 658.596 151.59C658.751 152.548 660.247 153.114 663.084 153.287C666.285 153.541 670.669 155.675 676.234 159.69C681.857 163.625 686.561 167.955 690.346 172.679C696.691 180.641 701.205 187.705 703.889 193.871C706.641 200.027 708.843 208.203 710.494 218.399C711.845 226.748 712.605 231.224 712.773 231.829C713.415 233.621 714.351 233.329 715.581 230.953C716.743 228.588 720.668 217.7 727.357 198.288C728.109 195.989 728.848 193.833 729.575 191.819ZM838.247 226.051C839.723 224.759 841.207 224.378 842.697 224.91C844.62 225.511 844.692 227.255 842.912 230.142C842.511 230.698 842.046 231.3 841.519 231.947C830.332 245.697 821.908 253.521 816.246 255.421C812.525 256.726 809.155 257.166 806.137 256.742C803.119 256.317 800.176 254.406 797.309 251.008C796.096 249.589 794.058 246.548 791.197 241.885C788.335 237.222 786.899 234.856 786.888 234.788C786.331 234.386 785.192 235.378 783.472 237.764C781.82 240.138 779.833 243.479 777.51 247.788C775.177 252.028 772.899 256.61 770.677 261.535C769.398 264.481 768.059 267.05 766.658 269.243C765.247 271.368 764.233 272.48 763.617 272.579C762.043 272.834 760.479 270.981 758.924 267.019C756.819 261.391 756.498 253.332 757.96 242.842C759.41 232.284 762.91 217.462 768.457 198.376C771.804 186.949 776.435 170.012 782.352 147.565C786.226 132.893 788.937 123.395 790.484 119.072C792.021 114.68 793.576 112.356 795.15 112.101C797.476 111.725 799.543 113.216 801.351 116.575C803.217 119.854 804.211 124.047 804.336 129.154C804.338 133.507 803.971 137.745 803.234 141.867C802.497 145.989 800.825 151.492 798.217 158.375C795.667 165.178 793.343 170.997 791.247 175.83C789.15 180.664 785.43 189.132 780.086 201.233C773.522 215.779 769.266 227.88 767.318 237.535L764.793 251.216L773.488 237.905C776.196 233.815 778.525 230.629 780.473 228.348C782.489 226.055 784.319 224.565 785.964 223.877C787.676 223.178 789.14 223.328 790.355 224.325C791.638 225.311 792.844 227.117 793.971 229.744C795.786 234.014 797.673 237.642 799.63 240.625C801.646 243.529 803.488 245.583 805.158 246.788C806.896 247.981 808.396 248.792 809.659 249.219C810.98 249.567 812.108 249.595 813.044 249.303C814.905 248.651 817.638 246.663 821.243 243.341C824.837 239.95 828.432 236.348 832.029 232.536C835.682 228.644 837.755 226.482 838.247 226.051ZM919.805 216.429L920.454 216.534C920.944 216.525 921.325 216.709 921.597 217.086C921.926 217.384 922.083 217.921 922.068 218.696C922.007 219.618 921.082 221.278 919.293 223.674C917.572 226.06 914.588 229.317 910.341 233.445C906.082 237.506 901.226 241.557 895.771 245.601C890.133 249.814 885.322 252.63 881.338 254.047C877.411 255.385 873.609 255.544 869.933 254.524C863.832 252.843 860.255 248.752 859.203 242.251L858.405 237.324L848.324 247.278C843.894 251.577 840.696 254.377 838.729 255.678C836.82 256.9 834.515 257.625 831.813 257.852C829.875 258.025 828.246 257.727 826.928 256.957C825.609 256.187 824.697 255.106 824.191 253.713C823.684 252.321 823.378 250.861 823.271 249.333C823.232 247.794 823.325 246.199 823.549 244.548C824.209 239.946 826.231 235.3 829.614 230.609C833.055 225.839 836.895 222.443 841.132 220.423C843.805 219.147 846.002 218.405 847.724 218.197C849.446 217.988 851.901 218.188 855.089 218.795L862.587 220.215L869.494 212.776C875.29 206.501 879.077 204.518 880.856 206.828C881.218 207.332 881.466 207.994 881.599 208.815C881.831 210.252 879.826 213.912 875.582 219.796C871.878 224.68 869.41 229.609 868.179 234.583C866.937 239.489 867.337 242.83 869.381 244.606C872.343 247.287 876.868 247.046 882.957 243.883C889.115 240.709 897.836 234.065 909.12 223.952C911.02 222.24 912.781 220.761 914.406 219.515C916.098 218.258 917.367 217.42 918.212 217.002C919.115 216.505 919.646 216.314 919.805 216.429ZM854.532 228.366C855.085 227.012 854.165 226.318 851.772 226.284C848.456 226.189 845.483 227.127 842.853 229.098C839.227 231.862 835.994 235.967 833.154 241.413C830.636 246.244 830.07 249.04 831.457 249.798C831.684 249.902 832.003 249.92 832.414 249.854C833.509 249.677 837.285 246.327 843.743 239.803C846.365 237.343 848.752 234.955 850.905 232.64C853.127 230.314 854.336 228.889 854.532 228.366ZM950.307 142.599C974.126 135.302 993.907 131.046 1009.65 129.831C1025.45 128.537 1033.79 130.593 1034.67 135.999C1034.88 137.299 1034.68 138.244 1034.07 138.834C1033.52 139.344 1032.47 139.584 1030.92 139.555C1029.36 139.456 1027.15 139.041 1024.3 138.31C1021.72 137.603 1018.56 137.377 1014.81 137.633C1011.06 137.89 1005.12 138.711 996.988 140.098C986.187 141.917 973.631 144.827 959.321 148.83C945.069 152.752 937.261 155.491 935.897 157.046C934.774 158.352 931.499 169.135 926.071 189.396C920.644 209.656 917.036 224.461 915.249 233.809C912.27 249.671 910.39 264.301 909.609 277.7C908.887 291.02 909.346 301.233 910.989 308.341C911.739 311.239 912.009 313.126 911.8 314.003C911.591 314.88 910.722 315.582 909.192 316.111C907.857 316.538 906.802 316.533 906.029 316.096C905.336 315.717 904.651 314.739 903.975 313.163C900.367 304.759 899.878 288.51 902.508 264.419C905.196 240.247 910.325 214.452 917.894 187.033C920.339 178.28 921.362 172.672 920.964 170.208C920.642 168.224 921.223 165.953 922.705 163.396C923.761 161.68 924.107 160.781 923.743 160.699C923.367 160.55 921.205 161.075 917.257 162.276C912.315 163.849 901.275 167.883 884.139 174.38C867.06 180.797 854.906 185.538 847.678 188.604C838.589 192.323 833.628 192.916 832.797 190.382C832.617 189.708 832.627 188.899 832.825 187.954C833.094 186.577 840.005 183.07 853.559 177.435C867.033 171.742 883.228 165.503 902.144 158.719L928.548 149.388L941.033 111.341C946.015 96.1382 949.533 85.983 951.585 80.8754C953.695 75.6883 955.399 72.9896 956.7 72.7791C961.148 72.0589 962.741 78.6479 961.48 92.5459C960.787 99.5402 959.595 105.843 957.905 111.453C956.204 116.996 953.386 123.667 949.453 131.467L942.861 144.753L950.307 142.599ZM256.854 391.354C261.531 392.914 264.844 396.029 266.794 400.699C268.744 405.37 270.571 414.484 272.275 428.043C277.54 469.676 274.227 515.789 262.333 566.38C257.601 586.599 252.938 602.909 248.345 615.31C243.74 627.642 238.247 638.609 231.866 648.209C220.516 665.286 207.798 672.401 193.714 669.555C187.622 668.364 181.381 664.95 174.991 659.314C168.68 653.734 163.31 646.809 158.881 638.537C155.876 632.984 153.542 626.375 151.879 618.708C150.205 610.974 149.46 603.334 149.643 595.791C149.83 590.002 149.684 586.936 149.207 586.592C149.037 586.408 148.364 587.887 147.187 591.027C146.01 594.167 144.48 598.382 142.598 603.673C137.397 619.262 132.083 632.201 126.656 642.49C121.229 652.779 116.103 659.718 111.277 663.309C106.451 666.899 101.231 668.06 95.6185 666.792C90.0743 665.513 85.2242 662.014 81.0681 656.296C77.365 651.208 74.4395 643.114 72.2914 632.015C70.1323 620.848 69.3085 609.253 69.8202 597.232C70.4329 580.63 73.0483 561 77.6665 538.342C82.2847 515.685 88.4752 491.894 96.238 466.972C99.7899 455.512 102.704 447.701 104.98 443.541C107.313 439.301 109.681 437.443 112.083 437.967C113.62 438.35 114.509 439.505 114.751 441.432C115.061 443.348 114.542 444.696 113.193 445.476C111.971 446.166 108.82 454.682 103.741 471.024C98.7194 487.286 94.2749 503.21 90.4075 518.794C81.9304 552.75 77.929 582.471 78.4034 607.957C78.8667 633.373 83.6637 649.556 92.7943 656.505C97.0527 659.818 101.354 659.929 105.699 656.838C110.045 653.747 114.805 647.148 119.98 637.04C124.787 627.694 131.597 610.545 140.408 585.593C149.208 560.573 155.391 540.857 158.957 526.445C164.406 504.145 169.684 492.721 174.792 492.175C175.761 492.088 176.723 492.389 177.677 493.077C179.029 494.052 179.228 496.583 178.274 500.67C177.389 504.746 174.753 512.968 170.365 525.336C164.707 541.14 160.955 557.653 159.108 574.876C157.251 592.031 157.65 606.643 160.307 618.713C161.936 626.174 164.861 633.18 169.082 639.729C173.371 646.268 178.536 651.717 184.579 656.076C188.566 659.012 191.401 660.695 193.086 661.124C194.771 661.554 197.871 661.403 202.388 660.672C206.289 660.04 209.147 659.261 210.963 658.335C212.859 657.466 214.958 655.898 217.259 653.629C222.744 648.036 228.109 639.969 233.355 629.429C238.59 618.82 243.05 606.897 246.736 593.66C255.784 561.928 261.762 530.974 264.672 500.798C267.57 470.553 267.147 443.866 263.402 420.736C262.327 414.098 261.391 409.615 260.592 407.286C259.794 404.958 258.532 403.02 256.807 401.474C254.561 399.309 251.733 398.327 248.325 398.528C244.985 398.718 242.204 399.976 239.982 402.302C237.394 404.968 234.882 405.936 232.447 405.207C230.466 404.685 229.76 403.36 230.328 401.231C230.549 400.423 230.974 399.582 231.605 398.707C234.014 395.368 237.769 392.969 242.87 391.511C247.971 390.053 252.632 390.001 256.854 391.354ZM335.689 552.292C336.65 553.892 336.293 555.81 334.619 558.048C333.013 560.274 328.301 565.216 320.481 572.872C311.642 581.606 304.744 587.358 299.785 590.127C294.826 592.897 289.938 593.723 285.123 592.606C280.751 591.629 277.964 588.077 276.761 581.952C275.548 575.758 276.18 568.387 278.659 559.84C280.234 554.388 281.97 549.928 283.867 546.461C285.821 542.915 288.385 540.322 291.561 538.685C294.874 537.025 297.779 537.186 300.277 539.17C302.833 541.073 304.052 543.615 303.935 546.794C303.851 550.178 302.173 554.347 298.902 559.301C295.62 564.186 292.542 566.862 289.668 567.327C287.409 567.693 285.999 568.307 285.437 569.171C284.863 569.966 284.506 572.095 284.364 575.559C284.269 578.875 285.072 581.449 286.773 583.28C288.089 584.472 289.204 585.064 290.115 585.057C291.016 584.981 292.837 584.3 295.578 583.013C299.301 581.287 306.115 575.444 316.02 565.483C319.821 561.638 322.821 558.694 325.018 556.653C327.205 554.543 329.064 553.013 330.595 552.063C332.116 551.044 333.206 550.622 333.866 550.796C334.516 550.902 335.123 551.4 335.689 552.292ZM290.407 551.723C288.519 555.68 288.093 557.821 289.129 558.144C289.847 558.239 290.933 557.361 292.389 555.51C294.591 552.625 295.575 550.465 295.343 549.028C295.043 547.18 294.328 546.664 293.196 547.479C292.247 548.124 291.317 549.539 290.407 551.723ZM380.145 543.83C383.431 542.877 385.439 542.482 386.168 542.644C386.885 542.739 387.377 543.607 387.643 545.25C388.008 547.508 386.78 549.462 383.957 551.113C381.124 552.696 377.364 553.55 372.68 553.677C369.112 553.763 365.868 553.024 362.946 551.46C360.013 549.828 356.909 547.136 353.633 543.382C352.51 542.089 351.658 541.595 351.075 541.9C350.481 542.137 349.147 543.652 347.071 546.446C345.855 548.047 344.257 551.186 342.275 555.86C340.35 560.456 338.596 565.234 337.011 570.196C333.204 582.68 330.029 589.093 327.486 589.435C326.585 589.51 325.75 588.908 324.981 587.628C324.258 586.2 324.408 578.451 325.431 564.381C326.635 550.562 326.645 542.169 325.462 539.2C324.516 536.825 324.6 534.74 325.714 532.945C326.885 531.07 328.518 530.314 330.613 530.677C332.276 530.969 333.561 533.921 334.47 539.533L335.816 547.847L341.785 539.823C345.535 534.792 348.693 532.174 351.258 531.969C353.812 531.696 356.777 533.744 360.153 538.113C363.065 541.785 365.921 544.026 368.721 544.837C371.589 545.637 375.397 545.301 380.145 543.83ZM430.953 536.868C431.915 538.468 431.558 540.387 429.884 542.624C428.278 544.851 423.565 549.792 415.746 557.449C406.907 566.183 400.008 571.935 395.049 574.704C390.09 577.473 385.203 578.299 380.387 577.183C376.016 576.205 373.228 572.654 372.026 566.528C370.813 560.334 371.445 552.964 373.924 544.416C375.499 538.964 377.235 534.505 379.131 531.038C381.085 527.491 383.65 524.899 386.826 523.261C390.139 521.601 393.044 521.763 395.542 523.746C398.097 525.65 399.317 528.191 399.199 531.37C399.115 534.755 397.438 538.924 394.167 543.878C390.884 548.763 387.806 551.438 384.932 551.904C382.674 552.269 381.264 552.884 380.701 553.747C380.128 554.542 379.77 556.672 379.629 560.136C379.534 563.452 380.336 566.025 382.037 567.857C383.354 569.048 384.468 569.64 385.38 569.633C386.281 569.557 388.101 568.876 390.843 567.59C394.566 565.864 401.38 560.02 411.284 550.06C415.086 546.214 418.085 543.271 420.283 541.229C422.469 539.12 424.328 537.59 425.86 536.64C427.38 535.621 428.471 535.199 429.131 535.373C429.78 535.478 430.388 535.977 430.953 536.868ZM385.671 536.299C383.784 540.257 383.358 542.397 384.394 542.721C385.111 542.816 386.198 541.937 387.654 540.086C389.855 537.202 390.84 535.041 390.607 533.604C390.308 531.756 389.592 531.24 388.46 532.056C387.511 532.701 386.582 534.115 385.671 536.299ZM485.601 602.389C484.338 606.737 482.321 609.24 479.548 609.9C476.844 610.548 474.703 609.034 473.125 605.357C471.365 601.428 469.959 592.527 468.906 578.652C467.854 564.778 467.607 551.756 468.165 539.587C468.959 520.638 470.843 503.865 473.817 489.268C476.78 474.603 481.083 460.845 486.727 447.993C491.117 437.802 495.286 430.806 499.236 427.007C503.242 423.128 507.693 421.775 512.589 422.949C516.903 424.006 520.975 428.122 524.805 435.297C528.693 442.392 532.762 453.426 537.012 468.398C541.261 483.37 546.13 503.684 551.618 529.341C559.876 567.33 566.199 590.99 570.589 600.322C572.271 603.771 573.657 606.04 574.746 607.128C575.915 608.273 577.74 609.136 580.222 609.717C588.259 611.647 595.041 607.564 600.57 597.469C606.178 587.432 610.664 571.116 614.029 548.52C617.591 524.98 619.082 500.792 618.502 475.956C617.911 451.052 615.114 419.025 610.11 379.877C608.021 363.502 606.568 353.66 605.751 350.351C605.003 347.031 603.551 344.352 601.395 342.314C600.056 340.985 599.071 339.67 598.439 338.368C597.796 336.997 597.584 335.908 597.804 335.1C598.082 334.212 598.569 333.536 599.267 333.072C599.964 332.608 600.973 332.55 602.293 332.898C603.671 333.167 605.115 333.846 606.626 334.936C609.341 336.954 611.459 340.93 612.981 346.863C614.493 352.728 616.448 364.806 618.848 383.098C622.576 412.199 624.979 435.932 626.056 454.297C627.122 472.594 627.182 491.615 626.236 511.361C625.473 528.339 623.284 545.828 619.667 563.83C616.108 581.751 612.3 594.447 608.242 601.915C605.058 607.838 600.529 612.399 594.657 615.597C588.852 618.784 583.344 619.676 578.13 618.272C575.125 617.495 572.522 616.161 570.32 614.27C568.197 612.437 566.112 609.755 564.066 606.223C562.031 602.761 559.969 597.617 557.881 590.792C555.872 584.025 553.783 576.111 551.614 567.052C549.434 557.925 546.811 546.06 543.745 531.458C536.275 495.729 529.807 470.091 524.34 454.544C518.873 438.996 513.616 431.245 508.567 431.29C505.273 431.331 501.013 436.902 495.788 448C490.562 459.099 486.315 471.69 483.048 485.772C480.13 498.113 478.058 513.512 476.833 531.968C475.676 550.414 475.75 566.484 477.054 580.177C477.436 583.837 477.742 586.597 477.973 588.456C478.192 590.246 478.436 591.751 478.704 592.972C479.029 594.113 479.345 594.764 479.652 594.925C479.959 595.086 480.37 595.02 480.884 594.726C482.164 593.957 483.304 593.842 484.304 594.383C485.294 594.855 485.905 595.809 486.137 597.246C486.37 598.683 486.191 600.397 485.601 602.389ZM699.387 493.408C700.349 495.008 699.992 496.927 698.318 499.165C696.712 501.391 691.999 506.332 684.18 513.989C675.341 522.723 668.442 528.475 663.483 531.244C658.524 534.013 653.637 534.84 648.821 533.723C644.45 532.746 641.663 529.194 640.46 523.068C639.247 516.874 639.879 509.504 642.358 500.956C643.933 495.505 645.669 491.045 647.565 487.578C649.519 484.031 652.084 481.439 655.26 479.801C658.573 478.141 661.478 478.303 663.976 480.286C666.532 482.19 667.751 484.731 667.633 487.91C667.549 491.295 665.872 495.464 662.601 500.418C659.318 505.303 656.24 507.978 653.366 508.444C651.108 508.809 649.698 509.424 649.135 510.287C648.562 511.082 648.204 513.212 648.063 516.676C647.968 519.992 648.771 522.566 650.472 524.397C651.788 525.588 652.902 526.18 653.814 526.173C654.715 526.098 656.536 525.417 659.277 524.13C663 522.404 669.814 516.56 679.718 506.6C683.52 502.754 686.519 499.811 688.717 497.769C690.903 495.66 692.763 494.13 694.294 493.18C695.815 492.161 696.905 491.739 697.565 491.913C698.214 492.018 698.822 492.517 699.387 493.408ZM654.105 492.839C652.218 496.797 651.792 498.937 652.828 499.261C653.545 499.356 654.632 498.477 656.088 496.627C658.289 493.742 659.274 491.581 659.041 490.144C658.742 488.297 658.027 487.78 656.894 488.596C655.946 489.241 655.016 490.655 654.105 492.839ZM738.433 475.605C741.393 473.932 743.686 473.35 745.314 473.859C746.998 474.289 747.573 475.67 747.038 478.004C746.49 480.691 743.459 483.008 737.946 484.954C732.5 486.889 728.625 487.025 726.319 485.361C725.285 484.616 724.546 484.384 724.1 484.667C723.072 485.255 720.575 489.135 716.61 496.308C715.586 498.23 713.506 502.078 710.368 507.853C705.803 516.527 702.511 522.222 700.493 524.936C698.532 527.571 696.507 529.163 694.419 529.712C692.468 530.238 691.049 530.363 690.161 530.085C689.262 529.739 688.423 528.892 687.643 527.543C685.304 523.076 684.441 513.841 685.053 499.837C685.385 489.741 686.903 484.369 689.607 483.721C690.291 483.61 690.991 483.813 691.707 484.329C692.513 484.971 692.99 486.403 693.14 488.626C693.346 490.77 693.386 494.485 693.259 499.773C693.168 502.246 693.084 504.331 693.008 506.028C693 507.715 693.015 509.328 693.054 510.867C693.081 512.337 693.132 513.522 693.208 514.423C693.273 515.255 693.423 515.968 693.66 516.562C693.885 517.087 694.106 517.368 694.323 517.403C694.607 517.427 695.001 517.258 695.504 516.895C695.996 516.465 696.501 515.891 697.017 515.176C697.522 514.392 698.159 513.341 698.929 512.022C699.756 510.624 700.577 509.192 701.393 507.726C702.267 506.18 703.29 504.258 704.463 501.962C707.085 496.902 712.15 487.199 719.659 472.851L727.144 458.577C728.007 456.963 728.637 456.088 729.037 455.954C729.494 455.739 730.392 456.085 731.733 456.992C733.085 457.967 733.781 459.013 733.821 460.13C733.93 461.236 733.508 463.832 732.554 467.919C731.182 473.759 730.899 477 731.706 477.642C732.66 478.331 734.902 477.651 738.433 475.605ZM791.778 478.45C792.739 480.05 792.383 481.969 790.708 484.206C789.102 486.433 784.39 491.374 776.57 499.03C767.732 507.765 760.833 513.517 755.874 516.286C750.915 519.055 746.027 519.881 741.212 518.765C736.84 517.787 734.053 514.236 732.851 508.11C731.637 501.916 732.27 494.545 734.748 485.998C736.323 480.546 738.059 476.087 739.956 472.62C741.91 469.073 744.475 466.481 747.65 464.843C750.963 463.183 753.869 463.345 756.367 465.328C758.922 467.232 760.141 469.773 760.024 472.952C759.94 476.337 758.262 480.506 754.991 485.46C751.709 490.345 748.631 493.02 745.757 493.485C743.498 493.851 742.088 494.466 741.526 495.329C740.952 496.124 740.595 498.254 740.453 501.718C740.358 505.034 741.161 507.607 742.862 509.439C744.179 510.63 745.293 511.222 746.204 511.215C747.105 511.139 748.926 510.458 751.667 509.172C755.391 507.445 762.204 501.602 772.109 491.642C775.91 487.796 778.91 484.852 781.107 482.811C783.294 480.702 785.153 479.172 786.685 478.222C788.205 477.203 789.295 476.781 789.956 476.955C790.605 477.06 791.212 477.559 791.778 478.45ZM746.496 477.881C744.608 481.838 744.183 483.979 745.218 484.303C745.936 484.397 747.022 483.519 748.478 481.668C750.68 478.784 751.664 476.623 751.432 475.186C751.133 473.338 750.417 472.822 749.285 473.637C748.336 474.283 747.406 475.697 746.496 477.881ZM836.234 469.989C839.521 469.035 841.528 468.64 842.257 468.803C842.974 468.897 843.466 469.766 843.732 471.408C844.098 473.666 842.869 475.621 840.046 477.272C837.213 478.854 833.454 479.709 828.769 479.835C825.201 479.921 821.957 479.182 819.035 477.619C816.102 475.987 812.998 473.294 809.722 469.541C808.599 468.248 807.747 467.754 807.164 468.059C806.571 468.295 805.236 469.811 803.16 472.605C801.945 474.206 800.346 477.344 798.364 482.019C796.439 486.614 794.685 491.393 793.101 496.354C789.293 508.839 786.118 515.252 783.575 515.593C782.674 515.669 781.839 515.067 781.07 513.787C780.348 512.359 780.497 504.61 781.52 490.539C782.724 476.721 782.734 468.327 781.551 465.359C780.605 462.984 780.689 460.899 781.803 459.103C782.974 457.228 784.607 456.472 786.702 456.835C788.365 457.128 789.65 460.08 790.559 465.691L791.905 474.006L797.874 465.981C801.624 460.95 804.782 458.332 807.347 458.128C809.901 457.855 812.866 459.903 816.242 464.272C819.154 467.944 822.01 470.185 824.81 470.996C827.678 471.795 831.486 471.46 836.234 469.989ZM959.932 272.995C969.582 276.208 975.881 281.719 978.831 289.528C981.781 297.337 981.302 307.176 977.395 319.044C974.99 326.315 970.404 335.941 963.636 347.922C956.936 359.892 952.663 366.026 950.815 366.325C949.925 366.469 949.168 366.346 948.543 365.956C947.986 365.554 947.67 364.903 947.595 364.002C947.373 362.634 948.045 360.278 949.611 356.934C951.165 353.523 954.637 346.991 960.027 337.341C966.107 326.314 969.936 316.565 971.514 308.093C973.08 299.553 972.244 293.087 969.005 288.696C965.132 283.424 959.407 280.594 951.83 280.205C944.253 279.817 936.551 281.907 928.723 286.475C920.072 291.597 910.671 299.896 900.52 311.371C890.369 322.846 883.261 333.161 879.196 342.316C876.524 348.367 874.443 353.514 872.953 357.758C871.531 361.991 870.521 366.158 869.92 370.258C869.389 374.347 869.338 377.936 869.768 381.027C870.266 384.106 871.373 387.473 873.089 391.128C874.872 394.772 877.095 398.31 879.758 401.741C882.409 405.104 885.866 409.109 890.13 413.756C894.053 418.036 900.921 424.017 910.732 431.698C920.611 439.369 928.892 445.191 935.575 449.165L943.963 454.127L958.109 437.406C966.888 426.996 973.005 420.106 976.463 416.738C979.92 413.369 982.452 411.871 984.057 412.243C987.324 412.907 987.347 415.432 984.124 419.816C982.873 421.634 980.988 423.87 978.469 426.525C973.681 431.654 967.734 438.516 960.629 447.11L951.602 458.368L962.299 466.538C968.932 471.503 973.545 475.707 976.139 479.15C978.722 482.524 980.395 486.572 981.16 491.293C981.67 494.441 981.681 496.897 981.194 498.662C980.696 500.357 979.185 502.954 976.662 506.453C970.927 514.404 961.864 522.191 949.475 529.815C937.154 537.428 925.267 542.513 913.813 545.069C907.994 546.433 904.207 547.116 902.452 547.119C900.697 547.123 898.905 546.465 897.076 545.146C894.373 543.196 892.894 541.434 892.639 539.86C891.974 535.754 893.872 529.478 898.334 521.03C902.863 512.572 911.145 499.75 923.18 482.562L937.947 461.211L912.033 442.338C901.526 434.699 893.941 428.834 889.275 424.744C884.599 420.585 880.313 416.012 876.415 411.025C871.804 405.1 868.351 400.252 866.055 396.481C863.816 392.63 862.303 388.486 861.514 384.049C860.725 379.612 860.717 375.224 861.49 370.885C862.319 366.467 863.868 360.634 866.135 353.385C868.425 346.272 870.605 340.652 872.675 336.525C874.814 332.387 878.126 327.251 882.611 321.117C896.214 302.342 909.811 288.729 923.401 280.279C936.99 271.828 949.168 269.4 959.932 272.995ZM946.931 466.603C945.767 466.792 939.157 475.411 927.1 492.462C915.101 509.432 907.858 520.436 905.373 525.474C902.555 531.056 901.427 534.715 901.989 536.45C902.55 538.185 904.987 538.703 909.298 538.005C913.951 537.252 920.281 535.139 928.286 531.666C935.697 528.429 943.199 524.23 950.79 519.069C958.45 513.896 964.273 509.091 968.26 504.653C970.814 501.782 972.357 499.601 972.888 498.11C973.488 496.609 973.583 494.592 973.173 492.06C972.553 488.228 971.165 485.082 969.011 482.621C966.471 479.943 962.378 476.567 956.733 472.495C951.156 468.412 947.889 466.448 946.931 466.603ZM1039.99 438.264C1040.96 439.864 1040.6 441.782 1038.92 444.02C1037.32 446.246 1032.61 451.187 1024.79 458.844C1015.95 467.578 1009.05 473.33 1004.09 476.099C999.131 478.868 994.244 479.695 989.429 478.578C985.057 477.601 982.27 474.049 981.067 467.924C979.854 461.73 980.486 454.359 982.965 445.811C984.54 440.36 986.276 435.9 988.172 432.433C990.126 428.886 992.691 426.294 995.867 424.656C999.18 422.997 1002.09 423.158 1004.58 425.141C1007.14 427.045 1008.36 429.586 1008.24 432.766C1008.16 436.15 1006.48 440.319 1003.21 445.273C999.926 450.158 996.848 452.834 993.973 453.299C991.715 453.664 990.305 454.279 989.742 455.143C989.169 455.938 988.811 458.067 988.67 461.531C988.575 464.847 989.378 467.421 991.079 469.252C992.395 470.443 993.509 471.036 994.421 471.028C995.322 470.953 997.143 470.272 999.884 468.985C1003.61 467.259 1010.42 461.415 1020.33 451.455C1024.13 447.609 1027.13 444.666 1029.32 442.625C1031.51 440.515 1033.37 438.985 1034.9 438.035C1036.42 437.016 1037.51 436.594 1038.17 436.768C1038.82 436.874 1039.43 437.372 1039.99 438.264ZM994.713 437.695C992.825 441.652 992.399 443.792 993.435 444.116C994.152 444.211 995.239 443.333 996.695 441.482C998.897 438.597 999.881 436.436 999.648 434.999C999.349 433.152 998.634 432.636 997.502 433.451C996.553 434.096 995.623 435.511 994.713 437.695ZM1108.51 427.486C1109.41 426.921 1110.35 426.908 1111.35 427.448C1112.42 427.977 1113.1 428.921 1113.39 430.278C1113.74 431.556 1113.44 433.185 1112.5 435.163C1111.05 437.926 1108.04 441.889 1103.47 447.054C1098.96 452.207 1095.85 455.344 1094.14 456.464C1087.37 460.649 1081 461.822 1075.01 459.982C1072.28 459.16 1069.71 457.188 1067.31 454.066C1064.98 450.932 1063.21 448.058 1062.02 445.442C1060.81 442.759 1060.14 441.428 1060 441.45C1058.84 441.638 1057.06 443.471 1054.68 446.947C1052.29 450.423 1050.23 454.163 1048.49 458.167C1043.86 469.029 1039.71 475.107 1036.06 476.401C1034.27 477.042 1032.82 476.363 1031.73 474.363C1031.06 473.278 1030.69 466.842 1030.6 455.058C1030.52 443.273 1030.78 433.576 1031.37 425.966C1031.69 422.754 1032.51 420.41 1033.81 418.934C1035.12 417.459 1036.56 417.26 1038.14 418.339C1039.26 419.142 1039.72 425.458 1039.52 437.286C1039.29 449.263 1039.21 455.491 1039.28 455.97C1039.33 456.244 1039.84 455.528 1040.83 453.823C1041.5 452.732 1042.26 451.345 1043.11 449.663C1045.45 445.069 1048.51 440.958 1052.28 437.328C1056.1 433.619 1059.24 431.742 1061.69 431.697C1063.23 431.658 1064.47 432.16 1065.41 433.201C1066.35 434.243 1067.56 436.505 1069.03 439.988C1072.87 448.918 1077.9 452.878 1084.13 451.87C1086.59 451.471 1089.23 450.025 1092.06 447.531C1094.89 445.037 1097.31 442.432 1099.33 439.718C1101.34 436.935 1103.22 434.277 1104.99 431.744C1106.83 429.199 1108 427.78 1108.51 427.486ZM1141.26 355.822C1165.08 348.524 1184.86 344.268 1200.61 343.053C1216.41 341.759 1224.75 343.815 1225.62 349.221C1225.83 350.521 1225.64 351.466 1225.03 352.056C1224.48 352.566 1223.43 352.807 1221.88 352.777C1220.32 352.678 1218.11 352.263 1215.25 351.532C1212.68 350.825 1209.52 350.599 1205.77 350.856C1202.02 351.112 1196.08 351.933 1187.94 353.32C1177.14 355.139 1164.59 358.05 1150.28 362.052C1136.02 365.974 1128.22 368.713 1126.85 370.268C1125.73 371.574 1122.45 382.357 1117.03 402.618C1111.6 422.879 1107.99 437.683 1106.2 447.032C1103.23 462.893 1101.35 477.523 1100.57 490.922C1099.84 504.242 1100.3 514.455 1101.94 521.563C1102.69 524.461 1102.97 526.349 1102.76 527.225C1102.55 528.102 1101.68 528.804 1100.15 529.333C1098.81 529.76 1097.76 529.755 1096.99 529.318C1096.29 528.939 1095.61 527.961 1094.93 526.385C1091.32 517.981 1090.83 501.732 1093.46 477.641C1096.15 453.47 1101.28 427.674 1108.85 400.255C1111.29 391.502 1112.32 385.894 1111.92 383.431C1111.6 381.446 1112.18 379.175 1113.66 376.618C1114.72 374.902 1115.06 374.003 1114.7 373.922C1114.32 373.772 1112.16 374.297 1108.21 375.498C1103.27 377.071 1092.23 381.105 1075.09 387.602C1058.02 394.019 1045.86 398.76 1038.63 401.827C1029.54 405.545 1024.58 406.138 1023.75 403.604C1023.57 402.931 1023.58 402.121 1023.78 401.176C1024.05 399.799 1030.96 396.292 1044.51 390.657C1057.99 384.964 1074.18 378.725 1093.1 371.941L1119.5 362.61L1131.99 324.563C1136.97 309.36 1140.49 299.205 1142.54 294.098C1144.65 288.91 1146.36 286.212 1147.66 286.001C1152.1 285.281 1153.7 291.87 1152.44 305.768C1151.74 312.762 1150.55 319.065 1148.86 324.676C1147.16 330.218 1144.34 336.889 1140.41 344.689L1133.82 357.975L1141.26 355.822Z" fill="white" fill-opacity="0.82"/>
</svg>
