<svg width="350" height="84" viewBox="0 0 350 84" fill="none" xmlns="http://www.w3.org/2000/svg">
<path d="M76.6811 37.2972H51.9874C52.7313 37.2972 53.2811 37.1517 53.6369 36.8606C54.025 36.5372 54.3161 36.1976 54.5102 35.8418C54.7042 35.4214 54.8336 34.9362 54.8983 34.3864V5.81159C54.8336 5.3588 54.7042 4.95451 54.5102 4.59874C54.3161 4.30766 54.025 4.03274 53.6369 3.774C53.2811 3.51526 52.7313 3.38589 51.9874 3.38589H64.4556C63.744 3.38589 63.1942 3.51526 62.8061 3.774C62.4503 4.03274 62.1754 4.32383 61.9813 4.64726C61.7549 5.00303 61.6256 5.40731 61.5932 5.86011V36.521H68.5793C69.5819 36.521 70.4713 36.3755 71.2475 36.0844C72.0238 35.761 72.6868 35.3567 73.2366 34.8715C73.8188 34.3541 74.3039 33.7881 74.692 33.1735C75.0801 32.5267 75.4036 31.8637 75.6623 31.1845C76.2445 29.632 76.5841 27.837 76.6811 25.7994V37.2972ZM94.0655 24.6351H84.6537C84.6537 24.6674 84.6537 24.9423 84.6537 25.4598C84.6537 25.9449 84.6699 26.5918 84.7022 27.4004C84.7669 28.1766 84.8639 29.0337 84.9933 29.9716C85.155 30.8772 85.3814 31.7666 85.6725 32.6399C85.9959 33.4808 86.4002 34.257 86.8854 34.9686C87.3705 35.6478 87.985 36.1167 88.7289 36.3755C90.0873 36.8606 91.3325 36.9576 92.4645 36.6666C93.5965 36.3431 94.5829 35.8256 95.4238 35.1141C96.2971 34.4026 96.9925 33.6263 97.51 32.7854C98.0274 31.9122 98.3509 31.1521 98.4802 30.5053C98.4802 30.5053 98.4317 30.6993 98.3347 31.0874C98.27 31.4432 98.1245 31.896 97.8981 32.4458C97.704 32.9957 97.3806 33.594 96.9278 34.2409C96.5073 34.8554 95.9252 35.4375 95.1813 35.9874C94.4697 36.5372 93.5803 36.99 92.513 37.3458C91.4457 37.7015 90.152 37.8794 88.6319 37.8794C87.1441 37.8794 85.7049 37.653 84.3141 37.2002C82.9557 36.7474 81.7429 36.0035 80.6756 34.9686C79.6406 33.9336 78.7997 32.5752 78.1528 30.8934C77.506 29.2116 77.1825 27.1416 77.1825 24.6836C77.1825 22.9047 77.4575 21.2552 78.0073 19.7351C78.5895 18.1827 79.3819 16.8405 80.3845 15.7085C81.3871 14.5765 82.5838 13.687 83.9745 13.0402C85.3976 12.3933 86.9339 12.0699 88.5834 12.0699C90.0388 12.0699 91.3325 12.2478 92.4645 12.6036C93.5965 12.9593 94.5829 13.4445 95.4238 14.059C96.2648 14.6412 96.9763 15.3204 97.5585 16.0966C98.173 16.8405 98.6743 17.6005 99.0624 18.3767C99.968 20.2203 100.534 22.3064 100.76 24.6351H100.566H94.0655ZM94.0655 23.6163C94.0655 22.743 94.0331 21.6919 93.9684 20.4629C93.9361 19.2338 93.7744 18.0695 93.4833 16.9698C93.1922 15.8378 92.7232 14.8837 92.0764 14.1075C91.4295 13.3313 90.5239 12.9432 89.3596 12.9432C88.1952 12.9432 87.2897 13.3313 86.6428 14.1075C85.9959 14.8837 85.527 15.8378 85.2359 16.9698C84.9448 18.0695 84.7669 19.2338 84.7022 20.4629C84.6699 21.6919 84.6537 22.743 84.6537 23.6163H94.0655ZM111.332 32.5429C111.332 33.9013 111.526 34.8069 111.914 35.2596C112.334 35.7124 112.787 35.8418 113.272 35.6478C113.757 35.4537 114.194 35.0009 114.582 34.2894C115.002 33.5778 115.213 32.7369 115.213 31.7666C115.213 33.3191 114.922 34.5158 114.339 35.3567C113.757 36.1652 113.11 36.7636 112.399 37.1517C111.558 37.6045 110.62 37.8632 109.585 37.9279C108.55 37.8632 107.612 37.6368 106.771 37.2487C106.06 36.893 105.413 36.3593 104.831 35.6478C104.281 34.9362 104.006 33.9013 104.006 32.5429L103.957 13.4768H100.513V12.6036H104.006V12.458C105.979 11.5201 107.45 10.6145 108.421 9.74124C109.423 8.86798 110.151 8.10793 110.604 7.46107C111.089 6.68485 111.332 5.98948 111.332 5.37497V12.6036H117.25V13.4768H111.332V32.5429ZM127.561 32.5429C127.561 33.9013 127.755 34.8069 128.143 35.2596C128.564 35.7124 129.016 35.8418 129.502 35.6478C129.987 35.4537 130.423 35.0009 130.811 34.2894C131.232 33.5778 131.442 32.7369 131.442 31.7666C131.442 33.3191 131.151 34.5158 130.569 35.3567C129.987 36.1652 129.34 36.7636 128.628 37.1517C127.787 37.6045 126.849 37.8632 125.815 37.9279C124.78 37.8632 123.842 37.6368 123.001 37.2487C122.289 36.893 121.642 36.3593 121.06 35.6478C120.51 34.9362 120.235 33.9013 120.235 32.5429L120.187 13.4768H116.742V12.6036H120.235V12.458C122.208 11.5201 123.68 10.6145 124.65 9.74124C125.653 8.86798 126.381 8.10793 126.833 7.46107C127.318 6.68485 127.561 5.98948 127.561 5.37497V12.6036H133.48V13.4768H127.561V32.5429ZM150.097 24.6351H140.686C140.686 24.6674 140.686 24.9423 140.686 25.4598C140.686 25.9449 140.702 26.5918 140.734 27.4004C140.799 28.1766 140.896 29.0337 141.025 29.9716C141.187 30.8772 141.413 31.7666 141.704 32.6399C142.028 33.4808 142.432 34.257 142.917 34.9686C143.402 35.6478 144.017 36.1167 144.761 36.3755C146.119 36.8606 147.364 36.9576 148.496 36.6666C149.628 36.3431 150.615 35.8256 151.456 35.1141C152.329 34.4026 153.024 33.6263 153.542 32.7854C154.059 31.9122 154.383 31.1521 154.512 30.5053C154.512 30.5053 154.464 30.6993 154.367 31.0874C154.302 31.4432 154.156 31.896 153.93 32.4458C153.736 32.9957 153.412 33.594 152.96 34.2409C152.539 34.8554 151.957 35.4375 151.213 35.9874C150.502 36.5372 149.612 36.99 148.545 37.3458C147.478 37.7015 146.184 37.8794 144.664 37.8794C143.176 37.8794 141.737 37.653 140.346 37.2002C138.988 36.7474 137.775 36.0035 136.707 34.9686C135.672 33.9336 134.832 32.5752 134.185 30.8934C133.538 29.2116 133.214 27.1416 133.214 24.6836C133.214 22.9047 133.489 21.2552 134.039 19.7351C134.621 18.1827 135.414 16.8405 136.416 15.7085C137.419 14.5765 138.616 13.687 140.006 13.0402C141.429 12.3933 142.966 12.0699 144.615 12.0699C146.071 12.0699 147.364 12.2478 148.496 12.6036C149.628 12.9593 150.615 13.4445 151.456 14.059C152.297 14.6412 153.008 15.3204 153.59 16.0966C154.205 16.8405 154.706 17.6005 155.094 18.3767C156 20.2203 156.566 22.3064 156.792 24.6351H156.598H150.097ZM150.097 23.6163C150.097 22.743 150.065 21.6919 150 20.4629C149.968 19.2338 149.806 18.0695 149.515 16.9698C149.224 15.8378 148.755 14.8837 148.108 14.1075C147.461 13.3313 146.556 12.9432 145.391 12.9432C144.227 12.9432 143.322 13.3313 142.675 14.1075C142.028 14.8837 141.559 15.8378 141.268 16.9698C140.977 18.0695 140.799 19.2338 140.734 20.4629C140.702 21.6919 140.686 22.743 140.686 23.6163H150.097ZM174.01 12.5551C174.786 12.9108 175.32 13.5092 175.611 14.3501C175.934 15.1586 175.918 15.9672 175.562 16.7758C175.207 17.6167 174.608 18.1989 173.767 18.5223C172.926 18.8457 172.085 18.8295 171.245 18.4738C170.404 18.118 169.821 17.5197 169.498 16.6788C169.175 15.8378 169.191 14.9969 169.547 14.156C169.838 13.5415 169.902 13.1211 169.741 12.8947C169.579 12.6359 169.304 12.5389 168.916 12.6036C168.56 12.6359 168.123 12.8138 167.606 13.1372C167.121 13.4283 166.684 13.8164 166.296 14.3016C166.555 14.6897 166.765 15.1425 166.927 15.66C167.089 16.1451 167.169 16.7273 167.169 17.4065V33.8527C167.202 34.4996 167.331 35.0818 167.557 35.5992C167.752 36.052 168.059 36.4563 168.479 36.8121C168.932 37.1355 169.563 37.2972 170.371 37.2972H156.593C157.402 37.2972 158.016 37.1355 158.437 36.8121C158.89 36.4563 159.213 36.052 159.407 35.5992C159.634 35.0818 159.763 34.4996 159.795 33.8527V17.4065C159.795 16.0481 159.585 15.1425 159.165 14.6897C158.776 14.2045 158.34 14.059 157.855 14.253C157.37 14.4148 156.917 14.8514 156.496 15.5629C156.076 16.2421 155.849 17.0669 155.817 18.0371C155.849 16.517 156.157 15.3689 156.739 14.5926C157.321 13.7841 157.968 13.1857 158.679 12.7976C159.52 12.3772 160.458 12.1184 161.493 12.0214C162.043 12.0537 162.593 12.1346 163.143 12.264C163.596 12.3933 164.081 12.6036 164.598 12.8947C165.148 13.1534 165.633 13.5253 166.054 14.0105C166.894 13.1696 167.784 12.6197 168.722 12.361C169.66 12.1023 170.517 11.9891 171.293 12.0214C172.199 12.0537 173.072 12.2155 173.913 12.5065C173.945 12.5065 173.978 12.5227 174.01 12.5551ZM190.244 24.6836C191.505 25.7509 192.362 27.0446 192.815 28.5647C193.268 30.0525 193.203 31.4917 192.621 32.8825C192.071 34.2732 190.955 35.4537 189.273 36.424C187.591 37.3943 185.247 37.8794 182.239 37.8794C181.398 37.8794 180.67 37.7986 180.056 37.6368C179.473 37.5075 178.956 37.3619 178.503 37.2002C178.083 37.0062 177.711 36.8444 177.387 36.7151C177.096 36.5534 176.837 36.4725 176.611 36.4725C176.32 36.4725 176.077 36.5372 175.883 36.6666C175.722 36.7959 175.592 36.9415 175.495 37.1032C175.366 37.2649 175.285 37.459 175.253 37.6854H175.059L175.107 29.0984H175.544C175.479 30.6508 175.641 32.0254 176.029 33.2221C176.191 33.7395 176.417 34.2409 176.708 34.726C176.999 35.2111 177.355 35.6478 177.775 36.0359C178.228 36.424 178.762 36.7312 179.376 36.9576C179.991 37.184 180.719 37.2972 181.559 37.2972C182.95 37.2972 184.066 36.99 184.907 36.3755C185.748 35.7286 186.282 34.9686 186.508 34.0953C186.767 33.1897 186.686 32.2518 186.265 31.2815C185.877 30.2789 185.15 29.438 184.082 28.7588L179.959 25.6539C178.309 24.5865 177.08 23.5031 176.271 22.4034C175.463 21.2714 174.994 20.1879 174.865 19.153C174.768 18.118 174.962 17.1477 175.447 16.2421C175.932 15.3042 176.627 14.5118 177.533 13.8649C178.471 13.2181 179.57 12.7329 180.832 12.4095C182.125 12.0861 183.516 11.9891 185.004 12.1184C185.716 12.1831 186.33 12.2963 186.848 12.458C187.397 12.5874 187.882 12.7329 188.303 12.8947C188.723 13.0564 189.079 13.2019 189.37 13.3313C189.694 13.4607 189.985 13.5253 190.244 13.5253C190.535 13.5253 190.761 13.4768 190.923 13.3798C191.117 13.2504 191.262 13.1049 191.359 12.9432C191.489 12.7815 191.57 12.5712 191.602 12.3125H191.796L191.747 20.8995H191.311C191.376 19.4764 191.214 18.1827 190.826 17.0184C190.664 16.5332 190.421 16.0481 190.098 15.5629C189.807 15.0778 189.435 14.6412 188.982 14.253C188.529 13.8326 187.963 13.493 187.284 13.2343C186.637 12.9432 185.877 12.7491 185.004 12.6521C183.387 12.5227 182.255 12.6521 181.608 13.0402C180.961 13.4283 180.638 13.9458 180.638 14.5926C180.638 15.2072 180.88 15.8864 181.365 16.6302C181.883 17.3741 182.481 18.021 183.16 18.5708L190.244 24.6836ZM234.044 14.3501C233.979 12.4742 233.656 10.7762 233.074 9.2561C232.815 8.64158 232.508 8.02707 232.152 7.41256C231.796 6.79805 231.344 6.24822 230.794 5.76308C230.244 5.27794 229.597 4.88983 228.853 4.59874C228.142 4.30766 227.301 4.16212 226.33 4.16212H222.255V34.4349C222.288 34.9847 222.401 35.4699 222.595 35.8903C222.757 36.2461 223.031 36.5695 223.42 36.8606C223.808 37.1517 224.374 37.2972 225.118 37.2972H212.649C213.393 37.2972 213.943 37.1517 214.299 36.8606C214.687 36.5695 214.978 36.2461 215.172 35.8903C215.366 35.4699 215.496 34.9847 215.56 34.4349V4.16212H211.194C210.256 4.16212 209.431 4.30766 208.72 4.59874C208.008 4.88983 207.378 5.27794 206.828 5.76308C206.31 6.24822 205.874 6.79805 205.518 7.41256C205.162 8.02707 204.871 8.64158 204.645 9.2561C204.095 10.7762 203.788 12.4742 203.723 14.3501V3.38589H234.044V14.3501ZM257.552 32.4943C257.552 33.8527 257.762 34.7745 258.182 35.2596C258.603 35.7124 259.055 35.8418 259.541 35.6478C260.058 35.4537 260.527 35.0009 260.947 34.2894C261.368 33.5778 261.578 32.7369 261.578 31.7666C261.578 33.2867 261.271 34.4673 260.656 35.3082C260.074 36.1167 259.427 36.7151 258.716 37.1032C257.875 37.556 256.937 37.8147 255.902 37.8794C254.867 37.8147 253.929 37.5883 253.088 37.2002C252.377 36.8444 251.73 36.3108 251.148 35.5992C250.598 34.8877 250.323 33.8527 250.323 32.4943V18.3282C250.323 17.3579 250.226 16.5817 250.032 15.9996C249.838 15.385 249.579 14.9161 249.256 14.5926C248.932 14.2692 248.576 14.059 248.188 13.962C247.8 13.8649 247.396 13.8488 246.975 13.9134C246.005 14.0428 244.906 14.5118 243.676 15.3204V37.2972H233.1C233.909 37.2972 234.523 37.1032 234.944 36.7151C235.397 36.327 235.72 35.8903 235.914 35.4052C236.141 34.8554 236.27 34.2247 236.302 33.5131V3.53143C236.27 2.91692 236.141 2.35092 235.914 1.83344C235.72 1.41298 235.397 1.02487 234.944 0.669099C234.523 0.31333 233.909 0.135446 233.1 0.135446H246.878C246.07 0.135446 245.439 0.31333 244.986 0.669099C244.566 1.02487 244.259 1.41298 244.065 1.83344C243.838 2.35092 243.709 2.91692 243.676 3.53143V14.7382C244.226 14.0913 244.873 13.59 245.617 13.2343C246.361 12.8461 247.089 12.5712 247.8 12.4095C248.641 12.2155 249.482 12.1023 250.323 12.0699C251.649 12.1346 252.846 12.3933 253.913 12.8461C254.819 13.2343 255.643 13.8649 256.387 14.7382C257.163 15.5791 257.552 16.7758 257.552 18.3282V32.4943ZM281.926 32.4458C281.926 33.8042 282.12 34.7098 282.508 35.1626C282.929 35.6154 283.381 35.7448 283.867 35.5507C284.384 35.3567 284.837 34.9039 285.225 34.1923C285.645 33.4808 285.856 32.6399 285.856 31.6696C285.856 33.2221 285.548 34.4187 284.934 35.2596C284.352 36.1006 283.705 36.7151 282.993 37.1032C282.152 37.556 281.198 37.8147 280.131 37.8794C279.322 37.8794 278.562 37.7339 277.851 37.4428C277.236 37.2164 276.622 36.8606 276.007 36.3755C275.425 35.858 275.005 35.1303 274.746 34.1923C274.681 34.3541 274.536 34.6451 274.309 35.0656C274.083 35.4537 273.76 35.858 273.339 36.2784C272.951 36.6989 272.45 37.0708 271.835 37.3943C271.253 37.7177 270.574 37.8794 269.798 37.8794C268.051 37.9441 266.515 37.7339 265.189 37.2487C264.607 37.0547 264.041 36.7798 263.491 36.424C262.973 36.0682 262.488 35.6154 262.035 35.0656C261.615 34.5158 261.275 33.8689 261.016 33.125C260.758 32.3811 260.628 31.4917 260.628 30.4568C260.628 29.4218 260.758 28.5162 261.016 27.74C261.275 26.9314 261.615 26.2522 262.035 25.7024C262.488 25.1202 262.973 24.6351 263.491 24.2469C264.041 23.8588 264.607 23.5516 265.189 23.3252C266.515 22.7754 268.051 22.5004 269.798 22.5004C270.994 22.5004 271.9 22.3711 272.514 22.1123C273.161 21.8536 273.63 21.5625 273.921 21.2391C274.277 20.8833 274.471 20.4467 274.503 19.9292V19.25C274.503 18.8619 274.471 18.3282 274.406 17.649C274.374 16.9698 274.196 16.2906 273.873 15.6114C273.582 14.9322 273.08 14.3501 272.369 13.8649C271.657 13.3475 270.638 13.0887 269.312 13.0887C268.827 13.0887 268.261 13.1696 267.614 13.3313C267 13.4607 266.466 13.6062 266.013 13.7679C265.561 13.9296 265.286 14.0913 265.189 14.253C265.092 14.3824 265.367 14.4471 266.013 14.4471C267.048 14.4471 267.922 14.819 268.633 15.5629C269.345 16.3068 269.701 17.1639 269.701 18.1342C269.701 19.1691 269.345 20.0262 268.633 20.7054C267.954 21.3846 267.081 21.7566 266.013 21.8212C265.043 21.8212 264.186 21.4655 263.442 20.7539C262.731 20.0424 262.375 19.1691 262.375 18.1342C262.375 17.2609 262.634 16.4685 263.151 15.757C263.701 15.0131 264.38 14.3662 265.189 13.8164C266.03 13.2666 266.951 12.8461 267.954 12.5551C268.989 12.2316 269.992 12.0699 270.962 12.0699C272.838 12.0699 274.406 12.2155 275.668 12.5065C276.961 12.7976 278.013 13.1696 278.821 13.6224C279.662 14.0428 280.293 14.528 280.713 15.0778C281.134 15.6276 281.425 16.1774 281.586 16.7273C281.781 17.2447 281.878 17.7299 281.878 18.1827C281.91 18.6355 281.926 18.9913 281.926 19.25V32.4458ZM274.552 20.6084C274.455 21.2552 274.228 21.7404 273.873 22.0638C273.517 22.3872 273.096 22.6622 272.611 22.8886C272.126 23.0826 271.609 23.2928 271.059 23.5192C270.509 23.7133 270.008 24.0367 269.555 24.4895C269.102 24.91 268.714 25.5083 268.391 26.2845C268.1 27.0608 267.954 28.1119 267.954 29.438C267.954 31.3785 268.116 32.8501 268.439 33.8527C268.795 34.8554 269.183 35.5992 269.603 36.0844C270.089 36.6666 270.638 36.99 271.253 37.0547C271.673 37.0547 272.062 36.9253 272.417 36.6666C272.805 36.3755 273.145 36.0359 273.436 35.6478C273.76 35.2596 274.002 34.8554 274.164 34.4349C274.358 33.9821 274.471 33.5778 274.503 33.2221L274.552 20.6084ZM295.441 32.5429C295.441 33.9013 295.635 34.8069 296.023 35.2596C296.443 35.7124 296.896 35.8418 297.381 35.6478C297.866 35.4537 298.303 35.0009 298.691 34.2894C299.112 33.5778 299.322 32.7369 299.322 31.7666C299.322 33.3191 299.031 34.5158 298.448 35.3567C297.866 36.1652 297.219 36.7636 296.508 37.1517C295.667 37.6045 294.729 37.8632 293.694 37.9279C292.659 37.8632 291.721 37.6368 290.88 37.2487C290.169 36.893 289.522 36.3593 288.94 35.6478C288.39 34.9362 288.115 33.9013 288.115 32.5429L288.066 13.4768H284.622V12.6036H288.115V12.458C290.088 11.5201 291.559 10.6145 292.53 9.74124C293.532 8.86798 294.26 8.10793 294.713 7.46107C295.198 6.68485 295.441 5.98948 295.441 5.37497V12.6036H301.359V13.4768H295.441V32.5429ZM15.9786 83.2972L3.75307 52.2482C3.52667 51.6984 3.23558 51.2133 2.87981 50.7928C2.58873 50.437 2.23296 50.1136 1.8125 49.8225C1.39205 49.4991 0.890735 49.3374 0.308566 49.3374H12.8737C12.1298 49.3374 11.6285 49.4991 11.3698 49.8225C11.111 50.1459 10.9493 50.4855 10.8846 50.8413C10.82 51.2618 10.8846 51.7469 11.0787 52.2967L21.2667 78.3003L27.8161 56.8571L26.021 52.2482C25.7946 51.6984 25.5036 51.2133 25.1478 50.7928C24.8567 50.437 24.4848 50.1136 24.032 49.8225C23.6115 49.4991 23.1102 49.3374 22.528 49.3374H30.1447H30.9695H35.1417C34.3978 49.3374 33.8965 49.4991 33.6377 49.8225C33.379 50.1459 33.2173 50.4855 33.1526 50.8413C33.0879 51.2618 33.1526 51.7469 33.3467 52.2967L43.4861 78.2518L51.3454 52.6363C51.4748 52.0218 51.4586 51.472 51.2969 50.9869C51.1352 50.5664 50.8117 50.1945 50.3266 49.871C49.8738 49.5153 49.1299 49.3374 48.0949 49.3374H55.7117C55.0325 49.3374 54.4665 49.5153 54.0137 49.871C53.5609 50.1945 53.2051 50.5664 52.9464 50.9869C52.6229 51.472 52.3642 52.0218 52.1701 52.6363L43.9227 79.3676L43.8742 79.5131L42.7099 83.2972H38.1981L28.3012 58.0214L20.4904 83.2972H15.9786ZM70.1609 70.6351H60.7492C60.7492 70.6674 60.7492 70.9423 60.7492 71.4598C60.7492 71.9449 60.7653 72.5918 60.7977 73.4004C60.8624 74.1766 60.9594 75.0337 61.0888 75.9716C61.2505 76.8772 61.4769 77.7666 61.768 78.6399C62.0914 79.4808 62.4957 80.257 62.9808 80.9686C63.466 81.6478 64.0805 82.1167 64.8243 82.3755C66.1827 82.8606 67.4279 82.9576 68.5599 82.6666C69.6919 82.3431 70.6784 81.8256 71.5193 81.1141C72.3925 80.4026 73.0879 79.6263 73.6054 78.7854C74.1229 77.9122 74.4463 77.1521 74.5757 76.5053C74.5757 76.5053 74.5272 76.6993 74.4301 77.0874C74.3655 77.4432 74.2199 77.896 73.9935 78.4458C73.7995 78.9957 73.476 79.594 73.0232 80.2409C72.6028 80.8554 72.0206 81.4375 71.2767 81.9874C70.5652 82.5372 69.6758 82.99 68.6084 83.3458C67.5411 83.7015 66.2474 83.8794 64.7273 83.8794C63.2396 83.8794 61.8003 83.653 60.4096 83.2002C59.0512 82.7474 57.8383 82.0035 56.771 80.9686C55.736 79.9336 54.8951 78.5752 54.2483 76.8934C53.6014 75.2116 53.278 73.1416 53.278 70.6836C53.278 68.9047 53.5529 67.2552 54.1027 65.7351C54.6849 64.1827 55.4773 62.8405 56.4799 61.7085C57.4825 60.5765 58.6792 59.687 60.07 59.0402C61.493 58.3933 63.0293 58.0699 64.6788 58.0699C66.1342 58.0699 67.4279 58.2478 68.5599 58.6036C69.6919 58.9593 70.6784 59.4445 71.5193 60.059C72.3602 60.6412 73.0717 61.3204 73.6539 62.0966C74.2684 62.8405 74.7697 63.6005 75.1579 64.3767C76.0634 66.2203 76.6294 68.3064 76.8558 70.6351H76.6618H70.1609ZM70.1609 69.6163C70.1609 68.743 70.1286 67.6919 70.0639 66.4629C70.0315 65.2338 69.8698 64.0695 69.5787 62.9698C69.2876 61.8378 68.8187 60.8837 68.1718 60.1075C67.525 59.3313 66.6194 58.9432 65.455 58.9432C64.2907 58.9432 63.3851 59.3313 62.7382 60.1075C62.0914 60.8837 61.6224 61.8378 61.3313 62.9698C61.0402 64.0695 60.8624 65.2338 60.7977 66.4629C60.7653 67.6919 60.7492 68.743 60.7492 69.6163H70.1609ZM94.0734 58.5551C94.8496 58.9108 95.3833 59.5092 95.6744 60.3501C95.9978 61.1586 95.9816 61.9672 95.6259 62.7758C95.2701 63.6167 94.6718 64.1989 93.8308 64.5223C92.9899 64.8457 92.149 64.8295 91.3081 64.4738C90.4672 64.118 89.885 63.5197 89.5616 62.6788C89.2382 61.8378 89.2544 60.9969 89.6101 60.156C89.9012 59.5415 89.9659 59.1211 89.8042 58.8947C89.6425 58.6359 89.3676 58.5389 88.9794 58.6036C88.6237 58.6359 88.187 58.8138 87.6696 59.1372C87.1844 59.4283 86.7478 59.8164 86.3597 60.3016C86.6184 60.6897 86.8286 61.1425 86.9904 61.66C87.1521 62.1451 87.2329 62.7273 87.2329 63.4065V79.8527C87.2653 80.4996 87.3946 81.0818 87.621 81.5992C87.8151 82.052 88.1224 82.4563 88.5428 82.8121C88.9956 83.1355 89.6263 83.2972 90.4349 83.2972H76.6569C77.4654 83.2972 78.0799 83.1355 78.5004 82.8121C78.9532 82.4563 79.2766 82.052 79.4707 81.5992C79.6971 81.0818 79.8264 80.4996 79.8588 79.8527V63.4065C79.8588 62.0481 79.6486 61.1425 79.2281 60.6897C78.84 60.2045 78.4034 60.059 77.9182 60.253C77.4331 60.4148 76.9803 60.8514 76.5598 61.5629C76.1394 62.2421 75.913 63.0669 75.8806 64.0371C75.913 62.517 76.2202 61.3689 76.8024 60.5926C77.3846 59.7841 78.0314 59.1857 78.743 58.7976C79.5839 58.3772 80.5218 58.1184 81.5568 58.0214C82.1066 58.0537 82.6564 58.1346 83.2063 58.264C83.6591 58.3933 84.1442 58.6036 84.6617 58.8947C85.2115 59.1534 85.6967 59.5253 86.1171 60.0105C86.958 59.1696 87.8474 58.6197 88.7854 58.361C89.7233 58.1023 90.5804 57.9891 91.3566 58.0214C92.2622 58.0537 93.1355 58.2155 93.9764 58.5065C94.0087 58.5065 94.0411 58.5227 94.0734 58.5551ZM111.811 70.6351H102.399C102.399 70.6674 102.399 70.9423 102.399 71.4598C102.399 71.9449 102.415 72.5918 102.448 73.4004C102.512 74.1766 102.61 75.0337 102.739 75.9716C102.901 76.8772 103.127 77.7666 103.418 78.6399C103.741 79.4808 104.146 80.257 104.631 80.9686C105.116 81.6478 105.731 82.1167 106.474 82.3755C107.833 82.8606 109.078 82.9576 110.21 82.6666C111.342 82.3431 112.328 81.8256 113.169 81.1141C114.043 80.4026 114.738 79.6263 115.256 78.7854C115.773 77.9122 116.096 77.1521 116.226 76.5053C116.226 76.5053 116.177 76.6993 116.08 77.0874C116.016 77.4432 115.87 77.896 115.644 78.4458C115.45 78.9957 115.126 79.594 114.673 80.2409C114.253 80.8554 113.671 81.4375 112.927 81.9874C112.215 82.5372 111.326 82.99 110.259 83.3458C109.191 83.7015 107.898 83.8794 106.377 83.8794C104.89 83.8794 103.45 83.653 102.06 83.2002C100.701 82.7474 99.4884 82.0035 98.4211 80.9686C97.3861 79.9336 96.5452 78.5752 95.8984 76.8934C95.2515 75.2116 94.9281 73.1416 94.9281 70.6836C94.9281 68.9047 95.203 67.2552 95.7528 65.7351C96.335 64.1827 97.1274 62.8405 98.13 61.7085C99.1327 60.5765 100.329 59.687 101.72 59.0402C103.143 58.3933 104.679 58.0699 106.329 58.0699C107.784 58.0699 109.078 58.2478 110.21 58.6036C111.342 58.9593 112.328 59.4445 113.169 60.059C114.01 60.6412 114.722 61.3204 115.304 62.0966C115.919 62.8405 116.42 63.6005 116.808 64.3767C117.714 66.2203 118.28 68.3064 118.506 70.6351H118.312H111.811ZM111.811 69.6163C111.811 68.743 111.779 67.6919 111.714 66.4629C111.682 65.2338 111.52 64.0695 111.229 62.9698C110.938 61.8378 110.469 60.8837 109.822 60.1075C109.175 59.3313 108.269 58.9432 107.105 58.9432C105.941 58.9432 105.035 59.3313 104.388 60.1075C103.741 60.8837 103.273 61.8378 102.981 62.9698C102.69 64.0695 102.512 65.2338 102.448 66.4629C102.415 67.6919 102.399 68.743 102.399 69.6163H111.811ZM158.444 49.3859C157.57 49.3859 156.907 49.5153 156.455 49.774C156.002 50.0327 155.662 50.3238 155.436 50.6473C155.177 51.003 155.031 51.4073 154.999 51.8601V83.2972H149.566L133.216 53.267V80.823C133.249 81.3082 133.41 81.7286 133.701 82.0844C133.96 82.4078 134.332 82.6989 134.817 82.9576C135.335 83.184 136.062 83.2972 137 83.2972H128.607C129.545 83.2972 130.273 83.184 130.791 82.9576C131.308 82.6989 131.696 82.4078 131.955 82.0844C132.246 81.7286 132.408 81.3082 132.44 80.823V51.8116C132.408 51.7793 132.311 51.6337 132.149 51.375C132.02 51.1162 131.809 50.8413 131.518 50.5502C131.227 50.2591 130.871 50.0004 130.451 49.774C130.031 49.5153 129.529 49.3859 128.947 49.3859H138.553L154.223 77.0389V51.8601C154.191 51.4073 154.045 51.003 153.786 50.6473C153.56 50.3238 153.22 50.0327 152.768 49.774C152.315 49.5153 151.668 49.3859 150.827 49.3859H158.444ZM174.855 70.6351H165.443C165.443 70.6674 165.443 70.9423 165.443 71.4598C165.443 71.9449 165.459 72.5918 165.491 73.4004C165.556 74.1766 165.653 75.0337 165.783 75.9716C165.944 76.8772 166.171 77.7666 166.462 78.6399C166.785 79.4808 167.189 80.257 167.675 80.9686C168.16 81.6478 168.774 82.1167 169.518 82.3755C170.877 82.8606 172.122 82.9576 173.254 82.6666C174.386 82.3431 175.372 81.8256 176.213 81.1141C177.086 80.4026 177.782 79.6263 178.299 78.7854C178.817 77.9122 179.14 77.1521 179.269 76.5053C179.269 76.5053 179.221 76.6993 179.124 77.0874C179.059 77.4432 178.914 77.896 178.687 78.4458C178.493 78.9957 178.17 79.594 177.717 80.2409C177.297 80.8554 176.714 81.4375 175.971 81.9874C175.259 82.5372 174.37 82.99 173.302 83.3458C172.235 83.7015 170.941 83.8794 169.421 83.8794C167.933 83.8794 166.494 83.653 165.103 83.2002C163.745 82.7474 162.532 82.0035 161.465 80.9686C160.43 79.9336 159.589 78.5752 158.942 76.8934C158.295 75.2116 157.972 73.1416 157.972 70.6836C157.972 68.9047 158.247 67.2552 158.797 65.7351C159.379 64.1827 160.171 62.8405 161.174 61.7085C162.176 60.5765 163.373 59.687 164.764 59.0402C166.187 58.3933 167.723 58.0699 169.373 58.0699C170.828 58.0699 172.122 58.2478 173.254 58.6036C174.386 58.9593 175.372 59.4445 176.213 60.059C177.054 60.6412 177.766 61.3204 178.348 62.0966C178.962 62.8405 179.464 63.6005 179.852 64.3767C180.757 66.2203 181.323 68.3064 181.55 70.6351H181.356H174.855ZM174.855 69.6163C174.855 68.743 174.822 67.6919 174.758 66.4629C174.725 65.2338 174.564 64.0695 174.273 62.9698C173.981 61.8378 173.512 60.8837 172.866 60.1075C172.219 59.3313 171.313 58.9432 170.149 58.9432C168.984 58.9432 168.079 59.3313 167.432 60.1075C166.785 60.8837 166.316 61.8378 166.025 62.9698C165.734 64.0695 165.556 65.2338 165.491 66.4629C165.459 67.6919 165.443 68.743 165.443 69.6163H174.855ZM207.692 58.5551C207.11 58.5551 206.592 58.7168 206.139 59.0402C205.687 59.3636 205.299 59.7517 204.975 60.2045C204.652 60.625 204.393 61.0454 204.199 61.4659C204.005 61.854 203.875 62.1128 203.811 62.2421L196.97 83.2972H192.264L182.416 61.7085C182.125 61.1263 181.802 60.6088 181.446 60.156C181.122 59.7679 180.734 59.4121 180.281 59.0887C179.829 58.7329 179.279 58.5551 178.632 58.5551H192.361C191.521 58.5551 190.955 58.7329 190.663 59.0887C190.372 59.4121 190.194 59.7679 190.13 60.156C190.065 60.6412 190.146 61.1748 190.372 61.757L197.844 78.0577L202.889 62.2421C203.018 61.5629 203.002 60.9484 202.84 60.3986C202.679 59.9458 202.355 59.5253 201.87 59.1372C201.385 58.7491 200.577 58.5551 199.445 58.5551H207.692ZM222.143 70.6351H212.731C212.731 70.6674 212.731 70.9423 212.731 71.4598C212.731 71.9449 212.747 72.5918 212.779 73.4004C212.844 74.1766 212.941 75.0337 213.071 75.9716C213.232 76.8772 213.459 77.7666 213.75 78.6399C214.073 79.4808 214.477 80.257 214.963 80.9686C215.448 81.6478 216.062 82.1167 216.806 82.3755C218.165 82.8606 219.41 82.9576 220.542 82.6666C221.674 82.3431 222.66 81.8256 223.501 81.1141C224.374 80.4026 225.07 79.6263 225.587 78.7854C226.105 77.9122 226.428 77.1521 226.557 76.5053C226.557 76.5053 226.509 76.6993 226.412 77.0874C226.347 77.4432 226.202 77.896 225.975 78.4458C225.781 78.9957 225.458 79.594 225.005 80.2409C224.585 80.8554 224.002 81.4375 223.258 81.9874C222.547 82.5372 221.658 82.99 220.59 83.3458C219.523 83.7015 218.229 83.8794 216.709 83.8794C215.221 83.8794 213.782 83.653 212.391 83.2002C211.033 82.7474 209.82 82.0035 208.753 80.9686C207.718 79.9336 206.877 78.5752 206.23 76.8934C205.583 75.2116 205.26 73.1416 205.26 70.6836C205.26 68.9047 205.535 67.2552 206.084 65.7351C206.667 64.1827 207.459 62.8405 208.462 61.7085C209.464 60.5765 210.661 59.687 212.052 59.0402C213.475 58.3933 215.011 58.0699 216.661 58.0699C218.116 58.0699 219.41 58.2478 220.542 58.6036C221.674 58.9593 222.66 59.4445 223.501 60.059C224.342 60.6412 225.054 61.3204 225.636 62.0966C226.25 62.8405 226.752 63.6005 227.14 64.3767C228.045 66.2203 228.611 68.3064 228.838 70.6351H228.644H222.143ZM222.143 69.6163C222.143 68.743 222.11 67.6919 222.046 66.4629C222.013 65.2338 221.852 64.0695 221.56 62.9698C221.269 61.8378 220.8 60.8837 220.154 60.1075C219.507 59.3313 218.601 58.9432 217.437 58.9432C216.272 58.9432 215.367 59.3313 214.72 60.1075C214.073 60.8837 213.604 61.8378 213.313 62.9698C213.022 64.0695 212.844 65.2338 212.779 66.4629C212.747 67.6919 212.731 68.743 212.731 69.6163H222.143ZM246.055 58.5551C246.831 58.9108 247.365 59.5092 247.656 60.3501C247.98 61.1586 247.963 61.9672 247.608 62.7758C247.252 63.6167 246.654 64.1989 245.813 64.5223C244.972 64.8457 244.131 64.8295 243.29 64.4738C242.449 64.118 241.867 63.5197 241.543 62.6788C241.22 61.8378 241.236 60.9969 241.592 60.156C241.883 59.5415 241.948 59.1211 241.786 58.8947C241.624 58.6359 241.349 58.5389 240.961 58.6036C240.605 58.6359 240.169 58.8138 239.651 59.1372C239.166 59.4283 238.73 59.8164 238.341 60.3016C238.6 60.6897 238.81 61.1425 238.972 61.66C239.134 62.1451 239.215 62.7273 239.215 63.4065V79.8527C239.247 80.4996 239.376 81.0818 239.603 81.5992C239.797 82.052 240.104 82.4563 240.525 82.8121C240.977 83.1355 241.608 83.2972 242.417 83.2972H228.639C229.447 83.2972 230.062 83.1355 230.482 82.8121C230.935 82.4563 231.258 82.052 231.452 81.5992C231.679 81.0818 231.808 80.4996 231.841 79.8527V63.4065C231.841 62.0481 231.63 61.1425 231.21 60.6897C230.822 60.2045 230.385 60.059 229.9 60.253C229.415 60.4148 228.962 60.8514 228.542 61.5629C228.121 62.2421 227.895 63.0669 227.862 64.0371C227.895 62.517 228.202 61.3689 228.784 60.5926C229.366 59.7841 230.013 59.1857 230.725 58.7976C231.566 58.3772 232.504 58.1184 233.539 58.0214C234.088 58.0537 234.638 58.1346 235.188 58.264C235.641 58.3933 236.126 58.6036 236.643 58.8947C237.193 59.1534 237.678 59.5253 238.099 60.0105C238.94 59.1696 239.829 58.6197 240.767 58.361C241.705 58.1023 242.562 57.9891 243.338 58.0214C244.244 58.0537 245.117 58.2155 245.958 58.5065C245.99 58.5065 246.023 58.5227 246.055 58.5551ZM277.004 65.3955C278.427 66.4305 279.575 67.611 280.449 68.9371C281.354 70.2308 281.953 71.573 282.244 72.9637C282.535 74.3221 282.486 75.6644 282.098 76.9904C281.742 78.2841 281.015 79.4485 279.915 80.4834C278.848 81.486 277.376 82.3108 275.5 82.9576C273.657 83.5722 271.377 83.8794 268.66 83.8794C267.528 83.8794 266.557 83.7824 265.749 83.5883C264.94 83.3943 264.245 83.184 263.663 82.9576C263.081 82.6989 262.579 82.4725 262.159 82.2784C261.738 82.0844 261.366 81.9874 261.043 81.9874C260.655 81.9874 260.331 82.0844 260.073 82.2784C259.846 82.4725 259.668 82.6827 259.539 82.9091C259.41 83.2002 259.313 83.5075 259.248 83.8309H258.957L259.005 71.9935H259.588C259.685 74.0634 260.057 75.9069 260.703 77.5241C260.994 78.2033 261.35 78.8825 261.771 79.5617C262.224 80.2085 262.757 80.7907 263.372 81.3082C264.019 81.8256 264.762 82.2461 265.603 82.5695C266.477 82.8606 267.479 83.0062 268.611 83.0062C270.519 83.0062 272.04 82.6019 273.172 81.7933C274.304 80.9847 275.015 79.9983 275.306 78.8339C275.63 77.6696 275.516 76.4244 274.967 75.0984C274.449 73.7723 273.479 72.5756 272.056 71.5083L266.671 67.2876C264.536 65.7675 262.887 64.2474 261.722 62.7273C260.59 61.1748 259.862 59.687 259.539 58.264C259.216 56.8085 259.28 55.4825 259.733 54.2858C260.218 53.0568 261.011 52.0218 262.11 51.1809C263.242 50.3077 264.665 49.6608 266.38 49.2403C268.094 48.8199 270.034 48.7067 272.201 48.9007C273.172 48.9654 274.012 49.111 274.724 49.3374C275.468 49.5314 276.115 49.7417 276.665 49.9681C277.247 50.1945 277.732 50.3885 278.12 50.5502C278.54 50.7119 278.929 50.7928 279.284 50.7928C279.672 50.7928 279.98 50.6958 280.206 50.5017C280.465 50.3077 280.659 50.0813 280.788 49.8225C280.918 49.5314 281.031 49.208 281.128 48.8522H281.37L281.322 60.2045H280.74C280.837 58.3933 280.61 56.7439 280.061 55.2561C279.834 54.6416 279.511 54.0271 279.09 53.4126C278.702 52.7657 278.201 52.1997 277.586 51.7146C276.972 51.1971 276.212 50.7605 275.306 50.4047C274.433 50.0166 273.398 49.774 272.201 49.677C270.002 49.4506 268.369 49.6285 267.301 50.2106C266.234 50.7928 265.619 51.569 265.458 52.5393C265.328 53.5096 265.603 54.5931 266.283 55.7897C266.994 56.9541 268.029 58.0376 269.387 59.0402L277.004 65.3955ZM299.852 70.6351H290.441C290.441 70.6674 290.441 70.9423 290.441 71.4598C290.441 71.9449 290.457 72.5918 290.489 73.4004C290.554 74.1766 290.651 75.0337 290.78 75.9716C290.942 76.8772 291.168 77.7666 291.459 78.6399C291.783 79.4808 292.187 80.257 292.672 80.9686C293.157 81.6478 293.772 82.1167 294.516 82.3755C295.874 82.8606 297.119 82.9576 298.251 82.6666C299.383 82.3431 300.37 81.8256 301.211 81.1141C302.084 80.4026 302.779 79.6263 303.297 78.7854C303.814 77.9122 304.138 77.1521 304.267 76.5053C304.267 76.5053 304.219 76.6993 304.122 77.0874C304.057 77.4432 303.911 77.896 303.685 78.4458C303.491 78.9957 303.167 79.594 302.715 80.2409C302.294 80.8554 301.712 81.4375 300.968 81.9874C300.257 82.5372 299.367 82.99 298.3 83.3458C297.233 83.7015 295.939 83.8794 294.419 83.8794C292.931 83.8794 291.492 83.653 290.101 83.2002C288.743 82.7474 287.53 82.0035 286.462 80.9686C285.428 79.9336 284.587 78.5752 283.94 76.8934C283.293 75.2116 282.969 73.1416 282.969 70.6836C282.969 68.9047 283.244 67.2552 283.794 65.7351C284.376 64.1827 285.169 62.8405 286.171 61.7085C287.174 60.5765 288.371 59.687 289.761 59.0402C291.185 58.3933 292.721 58.0699 294.37 58.0699C295.826 58.0699 297.119 58.2478 298.251 58.6036C299.383 58.9593 300.37 59.4445 301.211 60.059C302.052 60.6412 302.763 61.3204 303.345 62.0966C303.96 62.8405 304.461 63.6005 304.849 64.3767C305.755 66.2203 306.321 68.3064 306.547 70.6351H306.353H299.852ZM299.852 69.6163C299.852 68.743 299.82 67.6919 299.755 66.4629C299.723 65.2338 299.561 64.0695 299.27 62.9698C298.979 61.8378 298.51 60.8837 297.863 60.1075C297.216 59.3313 296.311 58.9432 295.146 58.9432C293.982 58.9432 293.077 59.3313 292.43 60.1075C291.783 60.8837 291.314 61.8378 291.023 62.9698C290.732 64.0695 290.554 65.2338 290.489 66.4629C290.457 67.6919 290.441 68.743 290.441 69.6163H299.852ZM334.098 77.7181V77.5726V77.7181ZM330.169 78.4943C330.169 79.8527 330.363 80.7583 330.751 81.2111C331.171 81.6639 331.624 81.7933 332.109 81.5992C332.627 81.4052 333.08 80.9524 333.468 80.2409C333.888 79.5293 334.098 78.6884 334.098 77.7181C334.098 79.2706 333.791 80.4673 333.177 81.3082C332.594 82.1167 331.948 82.7151 331.236 83.1032C330.395 83.556 329.457 83.8147 328.422 83.8794C327.387 83.8147 326.449 83.5883 325.608 83.2002C324.897 82.8444 324.25 82.3108 323.668 81.5992C323.086 80.8877 322.795 79.8527 322.795 78.4943V64.3282C322.795 63.3579 322.698 62.5656 322.504 61.951C322.309 61.3365 322.051 60.8676 321.727 60.5441C321.404 60.2207 321.048 60.0266 320.66 59.962C320.272 59.8649 319.868 59.8488 319.447 59.9134C318.477 60.0428 317.377 60.528 316.148 61.3689V79.8527C316.181 80.4996 316.31 81.0818 316.536 81.5992C316.73 82.052 317.038 82.4563 317.458 82.8121C317.911 83.1355 318.542 83.2972 319.35 83.2972H305.572C306.381 83.2972 306.995 83.1355 307.416 82.8121C307.868 82.4563 308.192 82.052 308.386 81.5992C308.612 81.0818 308.742 80.4996 308.774 79.8527V61.951C308.742 61.3365 308.612 60.7705 308.386 60.253C308.192 59.8326 307.868 59.4445 307.416 59.0887C306.995 58.7329 306.381 58.5551 305.572 58.5551H316.148V60.7382C316.698 60.0913 317.345 59.59 318.089 59.2343C318.833 58.8461 319.56 58.5712 320.272 58.4095C321.113 58.2155 321.954 58.1023 322.795 58.0699C324.185 58.1346 325.414 58.3933 326.482 58.8461C327.42 59.2343 328.261 59.8649 329.004 60.7382C329.781 61.5791 330.169 62.7758 330.169 64.3282V78.4943ZM343.724 78.5429C343.724 79.9013 343.918 80.8069 344.306 81.2596C344.726 81.7124 345.179 81.8418 345.664 81.6478C346.149 81.4537 346.586 81.0009 346.974 80.2894C347.394 79.5778 347.605 78.7369 347.605 77.7666C347.605 79.3191 347.314 80.5158 346.731 81.3567C346.149 82.1652 345.502 82.7636 344.791 83.1517C343.95 83.6045 343.012 83.8632 341.977 83.9279C340.942 83.8632 340.004 83.6368 339.163 83.2487C338.452 82.893 337.805 82.3593 337.223 81.6478C336.673 80.9362 336.398 79.9013 336.398 78.5429L336.349 59.4768H332.905V58.6036H336.398V58.458C338.371 57.5201 339.842 56.6145 340.813 55.7412C341.815 54.868 342.543 54.1079 342.996 53.4611C343.481 52.6848 343.724 51.9895 343.724 51.375V58.6036H349.642V59.4768H343.724V78.5429Z" fill="white"/>
</svg>
