<svg id="Layer_1" data-name="Layer 1" xmlns="http://www.w3.org/2000/svg" viewBox="0 0 406.67 167.71"><defs><style>.cls-1{fill:#fff;}</style></defs><title>jasonrm-signature</title><path class="cls-1" d="M484.3,496.62c2.1-1.53,4.29-3.32,6.54-5.23,16.25-6.65,33.07-15.59,42.85-28.39,2.92-3.82-1.9-7.57-5.45-7.09-15.72,2.13-25.53,14.42-37.19,23.93-2.7,1.17-5.36,2.33-7.88,3.53-17.47,8.26-29.61,6.67-48,6.06-21.55-.71-36.32,18.06-36.08,39.22.07,6.2,9.72,6.22,9.65,0-.09-7.73,3.06-15.3,7.64-21.44,5.95-8,13.65-8.58,23.2-7.8s17.77,1.77,26.51.3a128,128,0,0,0-20.38,22.92C418,562.88,390.9,602.89,339.79,614.15c-6.06,1.33-3.5,10.64,2.56,9.3,41-9,71.17-37.11,94.53-70.39C451.52,532.21,463.32,511.92,484.3,496.62Z" transform="translate(-336.33 -455.87)"/><path class="cls-1" d="M738.34,561.16c-33.69.77-66.27,10.67-99.89,11.87A145.35,145.35,0,0,1,614,572c-8.84-1.18-14.45-4.77-22-8.63-5.38-2.75-9.79-1.87-14.09-.47-.48-2.59-2.75-4.81-5.84-3.74-9.91,3.42-18.87,8.11-28.81,11.1-.09-5.38-4.89-9.11-9.87-10.42-8.11-2.13-18.09,1.52-25.3,5.06-6.14,3-15,12.07-21.88,12.68-7.23.64-4-3.19-4.21-9,3.33,2,8.7-2.19,6.62-6.87-9.21-20.68-39.76,2.93-43.09,17.11-.57,2.43.74,5.36,3.37,5.93,8.81,1.93,15.89-1.54,22.64-6.23-.43,5.94.57,11,10.2,10.44,7.41-.45,14.91-5.75,20.93-9.52,4.75-3,9.18-6.16,14.53-8,7-2.45,19.69-.9,9,3.19A53.21,53.21,0,0,0,512,580.94c-5.17,3.39-.34,11.75,4.87,8.33a42.32,42.32,0,0,1,8.59-4.25c1.59-.47,3.34-1,5.12-1.66,4.51-1.25,9.16-2.11,13.92-3.18a59.33,59.33,0,0,0,7.1-2.11,4.41,4.41,0,0,0,.46,3.79c6.83,8.86,22.24,7.46,24.92-4.64a13.91,13.91,0,0,0,.18-5.34,8.55,8.55,0,0,1,2.27-.63c5.27-.6,10.17,3.56,14.6,5.42,12.18,5.1,25.53,6.18,38.66,6.15,35.59-.09,70.07-11.18,105.64-12C744.54,570.67,744.56,561,738.34,561.16Zm-261.81,2.39a3.8,3.8,0,0,0-1.84.71c-4.24,3.16-9.78,8.25-15.6,10.43C463.9,569.06,471.57,562.76,476.54,563.55Z" transform="translate(-336.33 -455.87)"/></svg>