<?xml version="1.0" encoding="UTF-8" standalone="no"?>
<!DOCTYPE svg PUBLIC "-//W3C//DTD SVG 1.1//EN" "http://www.w3.org/Graphics/SVG/1.1/DTD/svg11.dtd">
<svg width="100%" height="100%" viewBox="0 0 1006 1167" version="1.1" xmlns="http://www.w3.org/2000/svg" xmlns:xlink="http://www.w3.org/1999/xlink" xml:space="preserve" xmlns:serif="http://www.serif.com/" style="fill-rule:evenodd;clip-rule:evenodd;stroke-linejoin:round;stroke-miterlimit:2;">
    <g transform="matrix(1,0,0,1,-1299.01,-1365.85)">
        <g transform="matrix(1,0,0,1,1252.21,1385.85)">
            <g transform="matrix(6.12323e-17,1,-1,6.12323e-17,1324.46,-326.964)">
                <g opacity="0.39">
                    <g transform="matrix(2.61552e-17,-0.427147,0.427147,2.61552e-17,572.702,964.665)">
                        <circle cx="1117.77" cy="991.044" r="8.692" style="fill:white;"/>
                    </g>
                    <g transform="matrix(2.61552e-17,-0.427147,0.427147,2.61552e-17,835.393,1123.97)">
                        <circle cx="1117.77" cy="991.044" r="8.692" style="fill:white;"/>
                    </g>
                    <g transform="matrix(2.61552e-17,-0.427147,0.427147,2.61552e-17,1046.86,779.561)">
                        <circle cx="1117.77" cy="991.044" r="8.692" style="fill:white;"/>
                    </g>
                    <g transform="matrix(1.80791e-17,-0.295255,0.295255,1.80791e-17,845.84,1168.66)">
                        <circle cx="1117.77" cy="991.044" r="8.692" style="fill:white;"/>
                    </g>
                    <g transform="matrix(1.80791e-17,-0.295255,0.295255,1.80791e-17,260.016,1198.68)">
                        <circle cx="1117.77" cy="991.044" r="8.692" style="fill:white;"/>
                    </g>
                    <g transform="matrix(1.80791e-17,-0.295255,0.295255,1.80791e-17,157.417,1332.41)">
                        <circle cx="1117.77" cy="991.044" r="8.692" style="fill:white;"/>
                    </g>
                    <g transform="matrix(1.80791e-17,-0.295255,0.295255,1.80791e-17,16.92,1263.56)">
                        <circle cx="1117.77" cy="991.044" r="8.692" style="fill:white;"/>
                    </g>
                    <g transform="matrix(1.80791e-17,-0.295255,0.295255,1.80791e-17,123.797,1023.45)">
                        <circle cx="1117.77" cy="991.044" r="8.692" style="fill:white;"/>
                    </g>
                    <g transform="matrix(1.80791e-17,-0.295255,0.295255,1.80791e-17,32.9154,892.909)">
                        <circle cx="1117.77" cy="991.044" r="8.692" style="fill:white;"/>
                    </g>
                    <g transform="matrix(1.80791e-17,-0.295255,0.295255,1.80791e-17,210.028,950.355)">
                        <circle cx="1117.77" cy="991.044" r="8.692" style="fill:white;"/>
                    </g>
                    <g transform="matrix(2.11752e-17,-0.345818,0.345818,2.11752e-17,492.373,1358.88)">
                        <circle cx="1117.77" cy="991.044" r="8.692" style="fill:white;"/>
                    </g>
                    <g transform="matrix(1.59898e-17,-0.261133,0.261133,1.59898e-17,405.502,763.84)">
                        <circle cx="1117.77" cy="991.044" r="8.692" style="fill:white;"/>
                    </g>
                    <g transform="matrix(2.21152e-17,-0.361169,0.361169,2.21152e-17,509.024,1098.32)">
                        <circle cx="1117.77" cy="991.044" r="8.692" style="fill:white;"/>
                    </g>
                    <g transform="matrix(2.81668e-17,-0.459998,0.459998,2.81668e-17,461.628,1787.83)">
                        <circle cx="1117.77" cy="991.044" r="8.692" style="fill:white;"/>
                    </g>
                    <g transform="matrix(2.52781e-17,-0.412822,0.412822,2.52781e-17,221.806,1707.66)">
                        <circle cx="1117.77" cy="991.044" r="8.692" style="fill:white;"/>
                    </g>
                    <g transform="matrix(2.63405e-17,-0.430173,0.430173,2.63405e-17,864.933,1506.01)">
                        <circle cx="1117.77" cy="991.044" r="8.692" style="fill:white;"/>
                    </g>
                    <g transform="matrix(2.33051e-17,-0.380601,0.380601,2.33051e-17,821.938,700.533)">
                        <circle cx="1117.77" cy="991.044" r="8.692" style="fill:white;"/>
                    </g>
                </g>
            </g>
        </g>
    </g>
</svg>
