<svg width="388" height="147" viewBox="0 0 388 147" fill="none" xmlns="http://www.w3.org/2000/svg">
<path d="M83.2277 71.7197C78.5748 71.2825 73.4533 71.2356 67.8635 71.5791L59.6193 72.0476L55.8251 80.526C52.5774 87.646 48.7832 95.656 44.4424 104.556C39.446 114.986 37.0102 120.826 37.1351 122.075C37.2288 123.511 36.6823 124.839 35.4956 126.057C34.3089 127.274 33.1535 127.68 32.0293 127.274C31.4672 127.087 31.1549 126.837 31.0924 126.525C30.9051 125.713 32.0137 122.621 34.4182 117.25C36.0421 113.659 40.4921 104.134 47.7682 88.6765C49.0798 85.9597 50.2977 83.3677 51.4219 80.9007C52.5461 78.4337 53.4049 76.4976 53.9982 75.0923C54.6228 73.687 54.9039 72.9532 54.8414 72.8907C54.5603 72.6097 52.2339 72.7814 47.8619 73.406C43.49 74.0305 40.8824 74.5614 40.0393 74.9986C39.321 75.3109 38.7589 75.4202 38.353 75.3265C37.947 75.2328 37.4161 74.8581 36.7603 74.2023C36.0109 73.4528 35.6049 72.9532 35.5424 72.7034C35.5112 72.4223 35.7923 72.0632 36.3856 71.626C36.7291 71.3762 37.9314 71.0639 39.9924 70.6891C42.0535 70.3144 44.3019 70.0177 46.7377 69.7991C52.8272 69.1121 56.2154 68.5032 56.9025 67.9723C57.5582 67.4414 59.6505 63.0226 63.1793 54.716C66.7081 46.3781 69.2532 39.8046 70.8146 34.9954C72.7819 28.9372 73.5158 25.5958 73.0162 24.9712C72.86 24.7838 72.6102 24.7526 72.2667 24.8775C71.6421 25.1898 69.4718 25.627 65.7556 26.1891C62.0395 26.8761 60.1814 27.2665 60.1814 27.3602C60.1814 27.5788 60.9309 28.6093 62.4298 30.4517C64.5533 33.1061 65.4433 36.0416 65.0998 39.2581C64.7876 42.4433 63.0856 47.5647 59.994 54.6223C57.527 60.337 55.8251 63.1944 54.8882 63.1944C53.8265 63.1944 53.3112 62.7104 53.3425 61.7423C53.3737 60.4307 54.4042 57.6046 56.434 53.2639C58.5575 48.7046 59.9784 45.207 60.6967 42.7712C61.4149 40.3354 61.6179 38.29 61.3056 36.6349C61.0246 35.1047 60.3532 33.6682 59.2914 32.3254C58.2297 30.9826 57.0118 30.0146 55.6377 29.4212C54.4511 28.9216 52.3432 28.9528 49.314 29.5149C46.2849 30.0458 38.2124 31.8414 25.0966 34.9017C14.4166 37.3688 7.64014 38.5398 4.76716 38.4149C2.67487 38.29 1.39452 38.1339 0.926101 37.9465C0.488907 37.7279 0.270311 37.2126 0.270311 36.4007C0.270311 35.2453 1.34768 34.1054 3.50242 32.9812C5.68838 31.8258 9.68558 30.2956 15.494 28.3907C21.8021 26.3609 27.2982 24.9712 31.9824 24.2217C36.6979 23.4723 41.3509 23.2537 45.9414 23.566C51.3751 23.9407 54.3574 24.1281 54.8882 24.1281C56.1998 24.1593 59.6974 23.6128 65.3809 22.4886C71.0956 21.3644 73.953 20.6617 73.953 20.3807C73.953 20.0996 73.4065 19.9591 72.3135 19.9591C71.689 19.9903 71.2362 19.8654 70.9551 19.5844C70.7053 19.3033 70.5335 18.7568 70.4398 17.9449C70.3149 16.6333 70.5491 15.6184 71.1425 14.9002C71.7358 14.1819 72.657 13.8228 73.9062 13.8228C76.3732 13.8228 77.6067 15.0719 77.6067 17.5702C77.6067 18.8817 77.7941 19.6312 78.1688 19.8186C78.5435 20.0684 82.4627 19.6 89.9262 18.4133C96.9213 17.3828 104.76 16.6802 113.441 16.3054C122.154 15.9307 127.79 16.0556 130.351 16.6802C132.662 17.2735 134.364 18.101 135.457 19.1628C136.581 20.1933 137.143 21.5205 137.143 23.1444C137.143 24.7058 136.518 26.4702 135.269 28.4375C134.051 30.3737 133.005 31.2481 132.131 31.0607C131.257 30.9046 130.819 30.3581 130.819 29.4212C130.819 28.4844 131.257 27.4382 132.131 26.2828C133.973 23.7845 133.817 22.0358 131.663 21.0365C129.695 20.1621 125.714 19.7093 119.718 19.6781C115.533 19.6468 110.302 19.9279 104.026 20.5212C97.7488 21.1145 91.4876 21.9265 85.242 22.957C80.9012 23.644 78.5591 23.9875 78.2156 23.9875C78.1219 23.9875 77.997 24.1593 77.8409 24.5028C77.716 24.8151 77.5598 25.2679 77.3725 25.8612C77.1851 26.4546 77.0133 27.0947 76.8572 27.7817C75.2646 34.4646 71.7826 44.0516 66.4114 56.5428C63.2261 63.9439 61.6335 67.6912 61.6335 67.7849C61.6335 67.8786 65.6776 67.9255 73.7656 67.9255C80.8544 67.9255 85.5542 68.0972 87.8651 68.4407C90.2072 68.753 91.3783 69.4244 91.3783 70.4549C91.3783 71.3605 91.2065 71.9227 90.863 72.1413C90.5195 72.3598 87.9744 72.2193 83.2277 71.7197ZM39.7582 27.2665C40.0705 26.9542 39.3835 26.9074 37.6972 27.126C33.4502 27.6256 27.7666 28.8279 20.6466 30.7328C17.3052 31.6072 14.9944 32.341 13.714 32.9344C12.7147 33.4028 12.2151 33.6839 12.2151 33.7775C12.1838 33.9649 17.0554 32.9032 26.8298 30.5923H26.8766H26.9235L26.9703 30.5454H27.064C35.3082 28.5781 39.5396 27.4851 39.7582 27.2665ZM119.765 81.6502C120.389 81.4941 120.811 81.6502 121.029 82.1186C121.279 82.587 121.31 83.1335 121.123 83.7581C120.967 84.3827 120.686 84.8199 120.28 85.0697C119.968 85.257 119.484 85.4288 118.828 85.5849C118.172 85.7411 117.017 86.1002 115.361 86.6623C113.738 87.2244 111.77 88.0051 109.459 89.0044C106.055 90.4721 103.76 91.5807 102.574 92.3302C101.418 93.0485 100.388 94.0478 99.482 95.3281C98.0142 97.3892 96.5153 98.7476 94.9851 99.4034C93.4862 100.028 92.0497 99.9186 90.6756 99.0755C89.8013 98.5134 89.1767 97.8264 88.802 97.0144C88.4272 96.2025 88.3023 95.4062 88.4272 94.6255C88.5521 93.8135 88.677 93.189 88.802 92.7518C88.9581 92.3146 89.1142 91.9555 89.2704 91.6744C89.5827 91.1435 90.0042 90.6283 90.5351 90.1286C91.066 89.5978 91.55 89.2386 91.9872 89.0513C93.0802 88.6141 93.6267 87.849 93.6267 86.756C93.6579 85.5693 94.423 83.7269 95.922 81.2286C97.4521 78.7304 98.8262 77.0441 100.044 76.1697C101.73 74.9518 103.104 74.296 104.166 74.2023C105.259 74.1086 106.196 74.5146 106.977 75.4202C107.445 75.9511 107.757 76.3727 107.914 76.6849C108.101 76.966 108.241 77.5125 108.335 78.3244C108.429 79.1363 108.304 80.1044 107.96 81.2286C107.804 81.9469 107.57 82.6963 107.258 83.477C106.977 84.2578 106.742 84.8667 106.555 85.3039C106.368 85.7411 106.274 85.9753 106.274 86.0065C106.305 86.0378 107.305 85.7255 109.272 85.0697C111.239 84.4139 113.347 83.7113 115.596 82.9618C117.875 82.2123 119.265 81.7751 119.765 81.6502ZM95.032 94.6255C95.6565 93.9697 96.0313 93.5325 96.1562 93.3139C96.2811 93.0953 96.2967 92.9079 96.203 92.7518C96.1093 92.5957 95.7814 92.3771 95.2193 92.096C94.626 91.7525 94.1732 91.6276 93.8609 91.7213C93.5799 91.7837 93.2832 92.1116 92.9709 92.7049C92.6898 93.2671 92.4713 93.8292 92.3151 94.3913C92.1902 94.9534 92.159 95.4218 92.2214 95.7965C92.3151 96.1713 92.5025 96.3586 92.7835 96.3586C93.252 96.3586 94.0014 95.7809 95.032 94.6255ZM101.59 85.3039C103.058 82.7744 103.791 80.9632 103.791 79.8702C103.791 79.152 103.713 78.746 103.557 78.6523C103.401 78.5586 103.011 78.6991 102.386 79.0739C101.574 79.6048 100.512 80.9944 99.2009 83.2428C97.8893 85.4913 97.2335 87.0683 97.2335 87.9739C97.2335 89.0669 97.6395 89.4104 98.4514 89.0044C99.4195 88.536 100.466 87.3025 101.59 85.3039ZM142.389 83.1492C143.92 82.9618 144.841 82.9306 145.153 83.0555C145.465 83.1492 145.621 83.5707 145.621 84.3202C145.621 85.3507 144.934 86.1314 143.56 86.6623C142.186 87.162 140.453 87.2713 138.361 86.9902C136.768 86.7716 135.379 86.2095 134.192 85.3039C133.005 84.367 131.819 82.9462 130.632 81.0413C130.226 80.3855 129.883 80.1044 129.601 80.1981C129.32 80.2606 128.618 80.8383 127.494 81.9313C126.838 82.5558 125.901 83.8362 124.683 85.7723C123.496 87.6772 122.372 89.6758 121.31 91.7681C118.718 97.0457 116.845 99.6688 115.689 99.6376C115.283 99.6064 114.955 99.2785 114.706 98.6539C114.487 97.9669 115.112 94.5318 116.579 88.3486C118.11 82.2904 118.718 78.5586 118.406 77.1534C118.156 76.0291 118.344 75.1079 118.968 74.3897C119.624 73.6402 120.405 73.4216 121.31 73.7339C122.029 73.9837 122.388 75.389 122.388 77.9497V81.7439L125.62 78.6055C127.65 76.6381 129.242 75.7013 130.398 75.7949C131.553 75.8574 132.724 76.9816 133.911 79.1676C134.941 81.01 136.05 82.2123 137.237 82.7744C138.455 83.3365 140.172 83.4614 142.389 83.1492ZM167.403 83.7113C167.715 84.492 167.419 85.3195 166.513 86.1939C165.639 87.0683 163.187 88.9264 159.159 91.7681C154.6 95.0158 151.118 97.0769 148.713 97.9513C146.308 98.8257 144.076 98.8413 142.015 97.9981C140.141 97.2486 139.157 95.4686 139.064 92.6581C138.97 89.8164 139.782 86.5842 141.499 82.9618C142.592 80.6509 143.685 78.7928 144.778 77.3876C145.903 75.9511 147.23 74.983 148.76 74.4834C150.353 73.9837 151.633 74.2648 152.601 75.3265C153.6 76.357 153.959 77.5749 153.678 78.9802C153.397 80.4792 152.351 82.2123 150.54 84.1797C148.729 86.1158 147.167 87.0839 145.856 87.0839C144.825 87.0839 144.154 87.2556 143.841 87.5992C143.529 87.9114 143.217 88.8327 142.905 90.3628C142.624 91.8306 142.795 93.0328 143.42 93.9697C143.92 94.5942 144.372 94.9378 144.778 95.0002C145.184 95.0314 146.043 94.8597 147.355 94.485C149.135 93.9853 152.585 91.8774 157.707 88.1613C159.674 86.7248 161.22 85.6318 162.344 84.8823C163.468 84.1016 164.405 83.5551 165.155 83.2428C165.904 82.8993 166.419 82.79 166.7 82.9149C166.981 83.0086 167.216 83.2741 167.403 83.7113ZM147.308 80.1981C146.184 81.822 145.84 82.7432 146.277 82.9618C146.59 83.0555 147.136 82.7432 147.917 82.0249C149.103 80.9007 149.697 80.0107 149.697 79.3549C149.697 78.5118 149.416 78.2307 148.854 78.5118C148.385 78.7304 147.87 79.2925 147.308 80.1981ZM187.967 78.6055C189.403 78.0746 190.465 77.9809 191.152 78.3244C191.87 78.6367 192.026 79.2925 191.62 80.2918C191.183 81.4472 189.669 82.2592 187.077 82.7276C184.516 83.196 182.783 82.9774 181.877 82.0718C181.471 81.6658 181.159 81.5097 180.94 81.6034C180.441 81.7907 179.051 83.3365 176.771 86.2407C176.178 87.0214 174.976 88.5828 173.165 90.9249C170.51 94.4537 168.637 96.749 167.544 97.8107C166.482 98.8413 165.467 99.4034 164.499 99.4971C163.593 99.5907 162.953 99.5439 162.578 99.3565C162.204 99.1379 161.891 98.7007 161.641 98.045C160.923 95.8902 161.204 91.7213 162.485 85.5381C163.359 81.0725 164.421 78.7928 165.67 78.6991C165.982 78.6991 166.279 78.8397 166.56 79.1207C166.872 79.4642 166.981 80.1356 166.888 81.1349C166.825 82.103 166.576 83.7581 166.138 86.1002C165.92 87.1932 165.732 88.1144 165.576 88.8639C165.451 89.6134 165.342 90.3316 165.248 91.0186C165.155 91.6744 165.092 92.2053 165.061 92.6113C165.03 92.986 165.045 93.3139 165.108 93.595C165.17 93.8448 165.248 93.9853 165.342 94.0165C165.467 94.0478 165.654 94.0009 165.904 93.876C166.154 93.7199 166.419 93.5013 166.7 93.2202C166.981 92.9079 167.341 92.4864 167.778 91.9555C168.246 91.3934 168.715 90.8156 169.183 90.2223C169.683 89.5978 170.276 88.8171 170.963 87.8802C172.493 85.8192 175.444 81.8688 179.816 76.0291L184.173 70.2207C184.672 69.5649 185.016 69.2214 185.203 69.1902C185.422 69.1277 185.796 69.3463 186.327 69.846C186.858 70.3769 187.092 70.8921 187.03 71.3918C186.999 71.8914 186.624 73.0156 185.906 74.7644C184.875 77.2627 184.516 78.6835 184.828 79.027C185.203 79.4018 186.249 79.2613 187.967 78.6055ZM213.402 83.7113C213.714 84.492 213.418 85.3195 212.512 86.1939C211.638 87.0683 209.186 88.9264 205.158 91.7681C200.599 95.0158 197.117 97.0769 194.712 97.9513C192.307 98.8257 190.075 98.8413 188.014 97.9981C186.14 97.2486 185.156 95.4686 185.063 92.6581C184.969 89.8164 185.781 86.5842 187.498 82.9618C188.591 80.6509 189.684 78.7928 190.777 77.3876C191.901 75.9511 193.229 74.983 194.759 74.4834C196.351 73.9837 197.632 74.2648 198.6 75.3265C199.599 76.357 199.958 77.5749 199.677 78.9802C199.396 80.4792 198.35 82.2123 196.539 84.1797C194.728 86.1158 193.166 87.0839 191.855 87.0839C190.824 87.0839 190.153 87.2556 189.84 87.5992C189.528 87.9114 189.216 88.8327 188.904 90.3628C188.623 91.8306 188.794 93.0328 189.419 93.9697C189.919 94.5942 190.371 94.9378 190.777 95.0002C191.183 95.0314 192.042 94.8597 193.354 94.485C195.134 93.9853 198.584 91.8774 203.706 88.1613C205.673 86.7248 207.219 85.6318 208.343 84.8823C209.467 84.1016 210.404 83.5551 211.154 83.2428C211.903 82.8993 212.418 82.79 212.699 82.9149C212.98 83.0086 213.215 83.2741 213.402 83.7113ZM193.307 80.1981C192.183 81.822 191.839 82.7432 192.276 82.9618C192.589 83.0555 193.135 82.7432 193.916 82.0249C195.102 80.9007 195.696 80.0107 195.696 79.3549C195.696 78.5118 195.415 78.2307 194.853 78.5118C194.384 78.7304 193.869 79.2925 193.307 80.1981ZM235.699 83.1492C237.229 82.9618 238.15 82.9306 238.463 83.0555C238.775 83.1492 238.931 83.5707 238.931 84.3202C238.931 85.3507 238.244 86.1314 236.87 86.6623C235.496 87.162 233.763 87.2713 231.67 86.9902C230.078 86.7716 228.688 86.2095 227.502 85.3039C226.315 84.367 225.128 82.9462 223.942 81.0413C223.536 80.3855 223.192 80.1044 222.911 80.1981C222.63 80.2606 221.927 80.8383 220.803 81.9313C220.147 82.5558 219.21 83.8362 217.993 85.7723C216.806 87.6772 215.682 89.6758 214.62 91.7681C212.028 97.0457 210.154 99.6688 208.999 99.6376C208.593 99.6064 208.265 99.2785 208.015 98.6539C207.797 97.9669 208.421 94.5318 209.889 88.3486C211.419 82.2904 212.028 78.5586 211.716 77.1534C211.466 76.0291 211.653 75.1079 212.278 74.3897C212.934 73.6402 213.714 73.4216 214.62 73.7339C215.338 73.9837 215.697 75.389 215.697 77.9497V81.7439L218.929 78.6055C220.959 76.6381 222.552 75.7013 223.707 75.7949C224.863 75.8574 226.034 76.9816 227.22 79.1676C228.251 81.01 229.36 82.2123 230.546 82.7744C231.764 83.3365 233.482 83.4614 235.699 83.1492ZM338.33 54.997C339.048 55.7153 338.892 56.6209 337.862 57.7139C336.862 58.7756 334.286 60.7118 330.133 63.5223L330.086 63.5691H330.039L329.992 63.616L329.945 63.6628L329.898 63.7097H329.852L329.805 63.7565L329.758 63.8033H329.711L329.664 63.8502L329.617 63.897H329.571L329.524 63.9439L329.477 63.9907L329.43 64.0376H329.383L329.336 64.0844L329.289 64.1312H329.243L329.196 64.1781L329.149 64.2249H329.102L329.008 64.2718L328.962 64.3186L328.915 64.3655H328.868L328.821 64.4123L328.774 64.4591H328.727L328.681 64.506L328.634 64.5528L328.587 64.5997C322.185 68.9716 318.235 71.8446 316.736 73.2186C314.987 74.7488 313.488 76.6693 312.239 78.9802C311.864 79.6672 311.255 80.8539 310.412 82.5402C310.162 83.0399 309.975 83.4146 309.85 83.6644C307.008 89.3479 304.463 94.1571 302.215 98.0918C299.966 101.995 296.032 108.46 290.411 117.484C284.977 126.197 280.886 132.411 278.138 136.128C275.421 139.844 273.048 142.436 271.018 143.903C269.238 145.215 267.364 146.043 265.397 146.386C263.461 146.73 261.962 146.495 260.9 145.683C258.527 143.903 258.933 139.204 262.118 131.584C265.334 123.964 270.471 115.439 277.529 106.008C281.464 100.824 285.273 96.2493 288.958 92.2834C292.675 88.2862 296.75 84.4139 301.184 80.6665L301.231 80.6197L301.278 80.5728L301.325 80.526H301.372L301.418 80.4792L301.465 80.4323L301.512 80.3855L301.559 80.3386L301.606 80.2918L301.653 80.2449C306.149 76.4663 308.944 73.9525 310.037 72.7034C311.349 71.2356 312.567 69.159 313.691 66.4734C313.941 65.88 314.347 64.8339 314.909 63.3349C315.034 63.0539 315.128 62.8353 315.19 62.6791C317.189 57.6514 319.062 52.4519 320.811 47.0807C321.842 43.833 323.153 39.3986 324.746 33.7775C326.37 28.1565 327.744 23.1756 328.868 18.8349C329.992 14.4942 330.476 12.3238 330.32 12.3238C329.852 12.3238 316.392 23.2224 289.942 45.0197C284.227 49.7351 279.98 53.1077 277.201 55.1376C274.453 57.1674 272.205 58.5883 270.456 59.4002C268.707 60.2121 266.833 60.6962 264.835 60.8523C262.899 60.9772 261.571 60.9616 260.853 60.8055C260.166 60.6493 259.448 60.2121 258.698 59.4939C257.043 57.9325 256.575 54.7784 257.293 50.0318C258.043 45.2539 260.197 37.5249 263.757 26.8449C266.88 17.414 269.472 10.7 271.533 6.70278C273.594 2.70559 275.499 0.706988 277.248 0.706988C277.841 0.706988 278.263 0.925585 278.513 1.36278C278.762 1.76874 278.794 2.26839 278.606 2.86173C278.419 3.42383 278.06 3.9391 277.529 4.40752C275.499 6.06261 272.267 13.4637 267.833 26.6107C262.805 41.5377 260.432 50.75 260.713 54.2476C260.806 55.5591 260.994 56.3554 261.275 56.6365C261.556 56.9176 262.352 57.1205 263.664 57.2455C267.505 57.5265 273.969 53.7947 283.056 46.0502C293.205 37.4312 303.667 28.781 314.441 20.0996C325.214 11.4182 331.148 6.87454 332.241 6.46857C333.209 6.09383 334.083 6.03138 334.864 6.2812C335.644 6.53103 336.035 6.99945 336.035 7.68647C336.035 8.37348 335.457 10.5126 334.302 14.1038C333.209 17.3516 331.366 23.7065 328.774 33.1686C326.057 43.0679 323.622 50.8905 321.467 56.6365C319.094 63.2881 317.907 66.7076 317.907 66.8949C317.907 66.9886 318.157 66.8949 318.656 66.6139C319.187 66.3328 319.905 65.8956 320.811 65.3023C321.748 64.6777 322.747 63.9907 323.809 63.2412C328.493 59.8998 331.975 57.589 334.255 56.3086C336.534 54.997 337.893 54.5598 338.33 54.997ZM278.887 128.82C285.039 119.358 291.144 109.459 297.203 99.1223C303.261 88.7858 306.29 83.1335 306.29 82.1655C306.29 81.3848 304.385 82.7276 300.575 86.1939C297.921 88.5985 295.063 91.409 292.003 94.6255C287.413 99.4034 282.885 104.9 278.419 111.114C273.985 117.297 270.378 123.074 267.598 128.446C264.819 133.848 263.429 137.845 263.429 140.437C263.429 141.874 263.648 142.686 264.085 142.873C264.522 143.06 265.475 142.779 266.943 142.03C268.348 141.311 270.206 139.656 272.517 137.064C274.859 134.504 276.982 131.756 278.887 128.82ZM359.503 81.6502C360.127 81.4941 360.549 81.6502 360.767 82.1186C361.017 82.587 361.048 83.1335 360.861 83.7581C360.705 84.3827 360.424 84.8199 360.018 85.0697C359.706 85.257 359.222 85.4288 358.566 85.5849C357.91 85.7411 356.755 86.1002 355.1 86.6623C353.476 87.2244 351.508 88.0051 349.197 89.0044C345.794 90.4721 343.498 91.5807 342.312 92.3302C341.156 93.0485 340.126 94.0478 339.22 95.3281C337.752 97.3892 336.253 98.7476 334.723 99.4034C333.224 100.028 331.788 99.9186 330.414 99.0755C329.539 98.5134 328.915 97.8264 328.54 97.0144C328.165 96.2025 328.04 95.4062 328.165 94.6255C328.29 93.8135 328.415 93.189 328.54 92.7518C328.696 92.3146 328.852 91.9555 329.008 91.6744C329.321 91.1435 329.742 90.6283 330.273 90.1286C330.804 89.5978 331.288 89.2386 331.725 89.0513C332.818 88.6141 333.365 87.849 333.365 86.756C333.396 85.5693 334.161 83.7269 335.66 81.2286C337.19 78.7304 338.564 77.0441 339.782 76.1697C341.468 74.9518 342.842 74.296 343.904 74.2023C344.997 74.1086 345.934 74.5146 346.715 75.4202C347.183 75.9511 347.495 76.3727 347.652 76.6849C347.839 76.966 347.98 77.5125 348.073 78.3244C348.167 79.1363 348.042 80.1044 347.698 81.2286C347.542 81.9469 347.308 82.6963 346.996 83.477C346.715 84.2578 346.481 84.8667 346.293 85.3039C346.106 85.7411 346.012 85.9753 346.012 86.0065C346.043 86.0378 347.043 85.7255 349.01 85.0697C350.977 84.4139 353.085 83.7113 355.334 82.9618C357.613 82.2123 359.003 81.7751 359.503 81.6502ZM334.77 94.6255C335.395 93.9697 335.769 93.5325 335.894 93.3139C336.019 93.0953 336.035 92.9079 335.941 92.7518C335.847 92.5957 335.52 92.3771 334.957 92.096C334.364 91.7525 333.911 91.6276 333.599 91.7213C333.318 91.7837 333.021 92.1116 332.709 92.7049C332.428 93.2671 332.209 93.8292 332.053 94.3913C331.928 94.9534 331.897 95.4218 331.96 95.7965C332.053 96.1713 332.241 96.3586 332.522 96.3586C332.99 96.3586 333.74 95.7809 334.77 94.6255ZM341.328 85.3039C342.796 82.7744 343.53 80.9632 343.53 79.8702C343.53 79.152 343.451 78.746 343.295 78.6523C343.139 78.5586 342.749 78.6991 342.124 79.0739C341.312 79.6048 340.251 80.9944 338.939 83.2428C337.627 85.4913 336.972 87.0683 336.972 87.9739C336.972 89.0669 337.378 89.4104 338.19 89.0044C339.158 88.536 340.204 87.3025 341.328 85.3039ZM382.081 87.8802C385.141 84.57 386.968 83.3834 387.561 84.3202C387.748 84.6325 387.842 85.1478 387.842 85.866C387.842 86.5842 387.077 87.8334 385.547 89.6134C384.048 91.3934 382.393 93.0328 380.582 94.5318C378.802 95.9995 377.552 96.7334 376.834 96.7334C374.867 96.7334 373.587 95.8902 372.993 94.2039C372.4 92.5176 372.525 90.1286 373.368 87.0371C374.367 83.5395 374.008 83.1179 372.291 85.7723C371.885 86.3969 371.416 87.1776 370.885 88.1144C367.544 94.1102 364.905 97.6234 362.969 98.6539C362.032 99.1848 361.392 99.4658 361.048 99.4971C360.736 99.4971 360.065 99.2941 359.034 98.8881C357.941 98.4509 357.239 97.5141 356.926 96.0776C356.614 94.6099 356.614 92.2053 356.926 88.8639C357.645 80.6821 358.8 75.4202 360.393 73.0781C361.111 72.0163 361.829 71.8446 362.547 72.5628C363.141 73.1562 363.047 75.3421 362.266 79.1207C361.704 81.7127 361.251 84.289 360.908 86.8497C360.564 89.4104 360.393 91.4246 360.393 92.8923C360.393 94.3288 360.549 95.1251 360.861 95.2813C362.079 95.2813 364.968 91.2216 369.527 83.1023C371.588 79.4799 373.305 76.8567 374.68 75.2328C376.054 73.5777 377.271 72.7502 378.333 72.7502C379.52 72.7502 380.16 73.4684 380.254 74.9049C380.347 76.3414 379.895 78.6523 378.895 81.8376C376.99 88.0832 376.257 91.5339 376.694 92.1897C377.1 92.783 378.552 91.7213 381.05 89.0044C381.362 88.6609 381.706 88.2862 382.081 87.8802Z" fill="white"/>
</svg>
