<svg width="1733" height="1053" viewBox="0 0 1733 1053" fill="none" xmlns="http://www.w3.org/2000/svg">
<g clip-path="url(#clip0_1333_1118)">
<path d="M795.298 398.576L845.608 298.675H905.979L952.696 398.576H795.298Z" fill="white"/>
<path d="M623.32 398.576L738.692 298.675H845.654L795.297 398.576H623.32Z" fill="#E0F1EB"/>
<path d="M1124.06 398.576L1008.69 298.675H901.731L952.088 398.576H1124.06Z" fill="#E0F1EB"/>
<path d="M952.696 398.578L889.449 608.439L867.169 608.439L795.298 398.578L952.696 398.578Z" fill="#E0F1EB"/>
<path d="M795.297 398.57L867.868 608.439L739.978 608.432L623.329 398.57L795.297 398.57Z" fill="white"/>
<path d="M952.088 398.57L879.517 608.439L1007.41 608.432L1124.06 398.57L952.088 398.57Z" fill="white"/>
<rect x="687.775" y="586.229" width="371.484" height="74.6979" rx="37.3489" fill="#3F3F3F"/>
<circle cx="874" cy="1246.2" r="548.421" stroke="#3F3F3F" stroke-width="148.408"/>
<circle cx="873.517" cy="1249.51" r="495.054" stroke="#212121" stroke-width="39.9237"/>
</g>
<defs>
<clipPath id="clip0_1333_1118">
<rect width="1733" height="1053" fill="white"/>
</clipPath>
</defs>
</svg>
