<?xml version="1.0" encoding="UTF-8" standalone="no"?>
<!DOCTYPE svg PUBLIC "-//W3C//DTD SVG 1.1//EN" "http://www.w3.org/Graphics/SVG/1.1/DTD/svg11.dtd">
<svg width="100%" height="100%" viewBox="0 0 1920 1527" version="1.1" xmlns="http://www.w3.org/2000/svg" xmlns:xlink="http://www.w3.org/1999/xlink" xml:space="preserve" xmlns:serif="http://www.serif.com/" style="fill-rule:evenodd;clip-rule:evenodd;stroke-linejoin:round;stroke-miterlimit:2;">
    <g transform="matrix(1,0,0,1,-3163.37,-137.419)">
        <g id="COVER-LANDSCAPE" serif:id="COVER LANDSCAPE" transform="matrix(1.77778,0,0,1.41371,3163.37,137.419)">
            <rect x="0" y="0" width="1080" height="1080" style="fill:none;"/>
            <g transform="matrix(0.515294,0,0,1,-7.53487e-14,241.495)">
                <g transform="matrix(2.11842,0,0,2.11478,0,-2390.37)">
                    <path d="M0,1401.87C0,1401.87 413.996,1319.82 645.151,1342.32L715.058,1354.46C715.058,1354.46 789.74,1356.67 847.82,1369.12L989.364,1386.21L989.364,1526.81L0,1526.81L0,1401.87Z"/>
                </g>
                <g transform="matrix(1.09161,0,0,0.707357,496.146,-506.645)">
                    <path d="M500.765,1340.39C500.765,1340.39 500.835,1335.98 501.994,1332.99C503.155,1329.99 500.951,1321.81 500.889,1321.2C500.827,1320.6 498.728,1320.92 498.728,1320.92L499.527,1299.61C499.527,1299.61 496.301,1298.96 496.845,1295.22C497.388,1291.47 502.192,1287.67 502.192,1287.67C502.192,1287.67 504.192,1277.42 506.432,1278.31C508.673,1279.21 511.617,1279.63 512.841,1283.85C514.065,1288.07 507.596,1290.22 507.596,1290.22C507.596,1290.22 514.602,1296.33 513.423,1308.81C512.245,1321.28 514.2,1320 514.2,1320L513.984,1321.72C513.984,1321.72 511.59,1321.88 510.541,1321.25C509.492,1320.62 509.258,1328.62 506.165,1333.06C504.736,1335.11 505.432,1340.04 505.432,1340.04L500.765,1340.39Z"/>
                </g>
            </g>
        </g>
    </g>
</svg>
